<svg version="1.1" xmlns="http://www.w3.org/2000/svg" width="32" height="32" viewBox="0 0 32 32" fill="#660e7a">
<path d="M8.345 27.982h5.325c0 1.464-1.198 2.663-2.663 2.663s-2.663-1.198-2.663-2.663zM5.682 26.651h10.651v-2.663h-10.651v2.663zM20.992 14.003c0 5.086-3.541 7.801-5.019 8.654h-9.932c-1.478-0.852-5.019-3.568-5.019-8.654 0-5.512 4.473-9.985 9.985-9.985s9.985 4.473 9.985 9.985zM18.33 14.003c0-4.034-3.288-7.322-7.322-7.322s-7.322 3.288-7.322 7.322c0 3.288 1.984 5.179 3.129 5.991h8.387c1.145-0.812 3.129-2.703 3.129-5.991zM27.476 11.167l-1.824 0.839 1.824 0.839 0.839 1.824 0.839-1.824 1.824-0.839-1.824-0.839-0.839-1.824-0.839 1.824zM24.321 9.343l1.251-2.743 2.743-1.251-2.743-1.251-1.251-2.743-1.251 2.743-2.743 1.251 2.743 1.251 1.251 2.743z"></path>
</svg>
