<svg role="img" width="24" height="24" viewBox="0 0 24 24" fill="none" xmlns="http://www.w3.org/2000/svg">
<title>Zhipu AI</title>
<path d="M21.2983 11.807V6.42262C21.2983 6.40664 21.2896 6.3919 21.2755 6.384L11.6714 1.0058C11.6645 1.00193 11.6569 1 11.6492 1V3.25317C11.6492 7.62499 15.3026 11.802 19.8097 11.802C19.7188 11.802 19.6283 11.8037 19.5382 11.807H21.2983Z" fill="url(#paint0)"/>
<path d="M2.00005 11.807V17.3837C2.00005 17.4003 2.00876 17.4155 2.02285 17.4237L11.6269 22.994C11.6338 22.998 11.6415 23 11.6492 23V20.6664C11.6492 16.1384 7.99577 11.8123 3.48867 11.8123C3.57951 11.8123 3.67001 11.8105 3.76013 11.807H2.00005Z" fill="url(#paint1)"/>
<path d="M2.00005 11.807V6.42262C2.00005 6.40664 2.00876 6.3919 2.02285 6.384L11.6269 1.0058C11.6338 1.00193 11.6415 1 11.6492 1V3.25317C11.6492 7.62499 7.99577 11.802 3.48867 11.802C3.57951 11.802 3.67001 11.8037 3.76013 11.807H2.00005Z" fill="url(#paint2)"/>
<path d="M21.2983 11.807V17.3837C21.2983 17.4003 21.2896 17.4155 21.2755 17.4237L11.6714 22.994C11.6645 22.998 11.6569 23 11.6492 23V20.6664C11.6492 16.1384 15.3026 11.8123 19.8097 11.8123C19.7188 11.8123 19.6283 11.8105 19.5382 11.807H21.2983Z" fill="url(#paint3)"/>
<path fill-rule="evenodd" clip-rule="evenodd" d="M19.8097 11.8126C15.3026 11.8126 11.6492 16.1387 11.6492 20.6667C11.6492 16.1791 8.06064 11.8897 3.60899 11.8136L3.60876 11.8115C3.65935 11.8107 3.70983 11.8093 3.76019 11.8073C3.70952 11.8054 3.65873 11.8041 3.60784 11.8032L3.60762 11.8013C8.05991 11.7287 11.6492 7.58679 11.6492 3.25348C11.6492 7.62529 15.3026 11.8023 19.8097 11.8023C19.7189 11.8023 19.6284 11.804 19.5383 11.8073C19.6284 11.8108 19.7189 11.8126 19.8097 11.8126Z" fill="white"/>
<defs>
<linearGradient id="paint0" x1="11.1106" y1="1.51779" x2="20.7585" y2="8.04543" gradientUnits="userSpaceOnUse">
<stop stop-color="#988EFF"/>
<stop offset="1" stop-color="#2153DD"/>
</linearGradient>
<linearGradient id="paint1" x1="10.5697" y1="20.4718" x2="0.560431" y2="11.4738" gradientUnits="userSpaceOnUse">
<stop stop-color="#8EAEFF"/>
<stop offset="1" stop-color="#2199DD"/>
</linearGradient>
<linearGradient id="paint2" x1="3.17684" y1="11.807" x2="11.0471" y2="0.889201" gradientUnits="userSpaceOnUse">
<stop stop-color="#988EFF"/>
<stop offset="1" stop-color="#2153DD"/>
</linearGradient>
<linearGradient id="paint3" x1="21.2983" y1="11.3562" x2="11.87" y2="22.8128" gradientUnits="userSpaceOnUse">
<stop stop-color="#8EA7FF"/>
<stop offset="1" stop-color="#2161DD"/>
</linearGradient>
</defs>
</svg>
