<svg version="1.1" xmlns="http://www.w3.org/2000/svg" width="32" height="32" viewBox="0 0 32 32" fill="#660e7a">
<path d="M16 14.278q-6.932 0-11.216-2.11t-4.284-4.779q0-2.712 4.284-4.801t11.216-2.088 11.216 2.088 4.284 4.801q0 2.669-4.284 4.779t-11.216 2.11zM16 22.889q-6.286 0-10.893-1.894t-4.607-4.564v-4.306q0 1.679 1.615 2.906t4.004 2.024 5.081 1.163 4.801 0.366q2.153 0 4.822-0.366t5.059-1.141 4.004-2.002 1.615-2.949v4.306q0 2.669-4.607 4.564t-10.893 1.894zM16 31.5q-6.286 0-10.893-1.894t-4.607-4.564v-4.306q0 1.679 1.615 2.906t4.004 2.024 5.081 1.163 4.801 0.366q2.153 0 4.822-0.366t5.059-1.141 4.004-2.002 1.615-2.949v4.306q0 2.669-4.607 4.564t-10.893 1.894z"></path>
</svg>
