<svg version="1.1" xmlns="http://www.w3.org/2000/svg" width="32" height="32" viewBox="0 0 32 32" fill="#660e7a">
<title>Math Block</title>
<path d="M26.343 32c1.668 0 2.748-1.032 2.748-2.602s-1.080-2.625-2.725-2.625h-15.402v-0.282l5.636-8.018c0.891-1.266 1.173-1.945 1.173-2.766 0-0.843-0.327-1.593-1.339-2.977l-5.236-7.243v-0.259h15.098c1.575 0 2.677-1.055 2.677-2.602 0-1.545-1.102-2.625-2.677-2.625h-19.864c-2.114 0-3.359 1.077-3.359 2.932 0 0.936 0.423 1.85 1.455 3.257l7.023 9.727-7.068 10.011c-1.361 1.97-1.573 2.439-1.573 3.352 0 1.689 1.291 2.72 3.43 2.72h20.005z"></path>
</svg>
