<svg version="1.1" xmlns="http://www.w3.org/2000/svg" width="32" height="32" viewBox="0 0 32 32" fill="#660e7a">
<title>Table</title>
<path d="M22.801 2.286h-22.801v27.429h32v-27.429h-9.199zM19.372 5.714v4.571h-6.801v-4.571h6.801zM19.372 13.714v4.571h-6.801v-4.571h6.801zM3.429 5.714h5.714v4.571h-5.714v-4.571zM3.429 13.714h5.714v4.571h-5.714v-4.571zM3.429 26.286v-4.571h5.714v4.571h-5.714zM12.571 26.286v-4.571h6.801v4.571h-6.801zM28.571 26.286h-5.77v-4.571h5.77v4.571zM28.571 18.286h-5.77v-4.571h5.77v4.571zM22.801 10.286v-4.571h5.77v4.571h-5.77z"></path>
</svg>
