<svg version="1.1" xmlns="http://www.w3.org/2000/svg" width="32" height="32" viewBox="0 0 32 32" fill="#660e7a">
<title>Unordered List</title>
<path d="M7.777 3.929h24.223v3.403h-24.223v-3.403zM7.777 17.701v-3.403h24.223v3.403h-24.223zM7.777 28.071v-3.403h24.223v3.403h-24.223zM2.592 23.777q1.053 0 1.823 0.77t0.77 1.823-0.77 1.823-1.823 0.77-1.823-0.77-0.77-1.823 0.77-1.823 1.823-0.77zM2.592 3.038q1.053 0 1.823 0.729t0.77 1.863-0.77 1.863-1.823 0.729-1.823-0.729-0.77-1.863 0.77-1.863 1.823-0.729zM2.592 13.408q1.053 0 1.823 0.729t0.77 1.863-0.77 1.863-1.823 0.729-1.823-0.729-0.77-1.863 0.77-1.863 1.823-0.729z"></path>
</svg>
