<?xml version="1.0" standalone="no"?><!DOCTYPE svg PUBLIC "-//W3C//DTD SVG 1.1//EN" "http://www.w3.org/Graphics/SVG/1.1/DTD/svg11.dtd"><svg t="1648127539840" class="icon" viewBox="0 0 1031 1024" version="1.1" xmlns="http://www.w3.org/2000/svg" p-id="46858" xmlns:xlink="http://www.w3.org/1999/xlink" width="20.13671875" height="20"><defs><style type="text/css"></style></defs><path d="M0 0z m790.037 519.76c0 149.27-121.04 270.277-270.276 270.277-149.269 0-270.276-121.007-270.276-270.276a266.31 266.31 0 0 1 5.1-51.976H72.767v359.252c0 77.12 62.468 139.718 139.718 139.718h614.552c77.12 0 139.718-62.533 139.718-139.718V467.785H785.001a271.41 271.41 0 0 1 5.036 51.976z m37-446.993H212.485c-77.185 0-139.718 62.566-139.718 139.718v151.348h226.29c48.923-69.129 129.518-114.348 220.704-114.348s171.78 45.22 220.703 114.348h226.291V212.485c0-77.12-62.566-139.718-139.718-139.718z m68.349 172.56c0 13.774-11.24 24.949-24.949 24.949h-74.78c-13.71 0-24.95-11.24-24.95-24.949v-74.845c0-13.774 11.273-24.949 24.95-24.949h74.78c13.774 0 24.949 11.24 24.949 24.949v74.845zM686.084 519.761c0-91.9-74.488-166.324-166.323-166.324s-166.324 74.424-166.324 166.324 74.489 166.323 166.324 166.323 166.323-74.423 166.323-166.323z" fill="#CF2F79" p-id="46859"></path></svg>