<?xml version="1.0" standalone="no"?><!DOCTYPE svg PUBLIC "-//W3C//DTD SVG 1.1//EN" "http://www.w3.org/Graphics/SVG/1.1/DTD/svg11.dtd"><svg t="1648127401415" class="icon" viewBox="0 0 1024 1024" version="1.1" xmlns="http://www.w3.org/2000/svg" p-id="25740" xmlns:xlink="http://www.w3.org/1999/xlink" width="20" height="20"><defs><style type="text/css"></style></defs><path d="M512 938.666667C276.352 938.666667 85.333333 747.648 85.333333 512S276.352 85.333333 512 85.333333s426.666667 191.018667 426.666667 426.666667-191.018667 426.666667-426.666667 426.666667z m284.586667-426.666667a62.293333 62.293333 0 0 0-105.386667-42.666667 303.786667 303.786667 0 0 0-164.266667-52.48L554.666667 283.733333l91.306666 19.2a42.666667 42.666667 0 1 0 5.546667-26.026666L546.986667 256a13.226667 13.226667 0 0 0-15.786667 10.24l-31.573333 148.053333a304.64 304.64 0 0 0-166.4 52.48 62.293333 62.293333 0 1 0-68.693334 101.973334 122.453333 122.453333 0 0 0 0 18.773333c0 95.573333 111.36 173.226667 248.746667 173.226667s248.746667-77.653333 248.746667-173.226667a122.453333 122.453333 0 0 0 0-18.773333 62.293333 62.293333 0 0 0 34.56-56.746667z m-426.666667 42.666667a42.666667 42.666667 0 1 1 85.333333 0 42.666667 42.666667 0 0 1-85.333333 0z m247.893333 117.333333a163.84 163.84 0 0 1-105.386666 32.853333 163.84 163.84 0 0 1-105.386667-32.853333 11.52 11.52 0 0 1 16.213333-16.213333A139.52 139.52 0 0 0 512 682.666667a139.946667 139.946667 0 0 0 89.173333-26.026667 11.946667 11.946667 0 1 1 16.64 17.066667v-1.706667z m-7.68-72.96a42.666667 42.666667 0 1 1 42.666667-42.666667 42.666667 42.666667 0 0 1-43.093333 44.373334l0.426666-1.706667z" p-id="25741" fill="#ff4500"></path></svg>