<?xml version="1.0" standalone="no"?><!DOCTYPE svg PUBLIC "-//W3C//DTD SVG 1.1//EN" "http://www.w3.org/Graphics/SVG/1.1/DTD/svg11.dtd"><svg t="1648126870710" class="icon" viewBox="0 0 1035 1024" version="1.1" xmlns="http://www.w3.org/2000/svg" p-id="37755" xmlns:xlink="http://www.w3.org/1999/xlink" width="20.21484375" height="20"><defs><style type="text/css"></style></defs><path d="M456.96 645.12s2.56 0 0 0c0-2.56-2.56 0-2.56 0h2.56z" fill="#FDFDFD" p-id="37756"></path><path d="M8.96 931.84c-10.24-15.36-5.12-30.72-5.12-46.08v-808.96c0-66.56 7.68-74.24 74.24-74.24h890.88c64 0 66.56 2.56 66.56 64 0 227.84-2.56 455.68-2.56 683.52" fill="#FDFDFD" p-id="37757"></path><path d="M884.48 808.96zM372.48 463.36c12.8 12.8 25.6 25.6 38.4 35.84 23.04 15.36 51.2 23.04 76.8 23.04 43.52 2.56 87.04 0 128-12.8 12.8-5.12 28.16-10.24 35.84-20.48 10.24-10.24 15.36-25.6 7.68-38.4" fill="#FDD000" p-id="37758"></path><path d="M746.24 573.44c-92.16 43.52-184.32 33.28-291.84 38.4 0 0 2.56 33.28 2.56 35.84 23.04 10.24 38.4 17.92 51.2 23.04 2.56 0 2.56 0 5.12 2.56 17.92 10.24 33.28 17.92 51.2 25.6 48.64 15.36 43.52 12.8 61.44 23.04 66.56 35.84 135.68 69.12 212.48 76.8h94.72c33.28-15.36 64-33.28 97.28-48.64 0-227.84 2.56-455.68 2.56-683.52 0-61.44-2.56-64-66.56-64h-919.04c-12.8 0-28.16 0-35.84 10.24-5.12 7.68-7.68 17.92-7.68 28.16-5.12 294.4-5.12 591.36 0 885.76 38.4-81.92 61.44-148.48 120.32-199.68 58.88-51.2 166.4-76.8 245.76-81.92-12.8-23.04-48.64-56.32-71.68-71.68" fill="#FDD000" p-id="37759"></path><path d="M884.48 806.4c0 2.56 0 2.56 0 0 2.56 0-2.56-5.12 0 0z" fill="#FDD000" p-id="37760"></path><path d="M428.8 739.84c25.6 33.28 58.88 40.96 81.92 76.8-40.96 12.8-74.24 33.28-112.64 46.08 30.72 35.84 56.32 69.12 84.48 99.84 43.52 15.36 87.04 35.84 130.56 46.08 38.4 10.24 79.36 15.36 120.32 12.8 43.52-2.56 79.36-17.92 117.76-33.28 15.36-5.12 28.16-10.24 43.52-17.92 48.64-25.6 92.16-69.12 117.76-117.76 10.24-20.48 15.36-40.96 15.36-66.56-2.56-2.56-5.12-43.52-2.56-43.52-33.28 15.36-69.12 40.96-104.96 48.64-10.24 2.56-20.48 2.56-30.72 2.56-48.64 0-92.16-2.56-138.24-17.92s-151.04-69.12-194.56-84.48" fill="#E70B00" p-id="37761"></path><path d="M485.12 181.76h2.56c48.64-17.92 104.96-28.16 151.04-5.12 17.92 7.68 30.72 23.04 48.64 30.72 25.6 12.8 56.32 12.8 84.48 10.24 25.6-2.56 51.2-7.68 66.56-28.16 15.36-20.48 12.8-51.2-2.56-74.24-15.36-20.48-38.4-35.84-64-43.52-51.2-20.48-107.52-23.04-161.28-25.6-84.48-2.56-168.96-2.56-248.32 25.6-43.52 15.36-87.04 40.96-115.2 76.8s-38.4 92.16-15.36 133.12c23.04 43.52 71.68 66.56 117.76 81.92 79.36 28.16 163.84 46.08 248.32 53.76 28.16 2.56 61.44 7.68 66.56 35.84 5.12 15.36-5.12 30.72-15.36 40.96-12.8 10.24-28.16 15.36-43.52 17.92-43.52 10.24-89.6 12.8-135.68 5.12-23.04-2.56-48.64-7.68-66.56-23.04-15.36-10.24-25.6-25.6-38.4-38.4-20.48-17.92-46.08-25.6-71.68-25.6-20.48 0-51.2 5.12-66.56 23.04-12.8 12.8-17.92 33.28-15.36 48.64 5.12 23.04 25.6 38.4 43.52 53.76 30.72 25.6 61.44 51.2 94.72 76.8-92.16 2.56-181.76 43.52-245.76 110.08-64 66.56-99.84 158.72-97.28 250.88 0 10.24 2.56 20.48 10.24 25.6 10.24 5.12 23.04-2.56 30.72-7.68 125.44-87.04 296.96-107.52 440.32-48.64-28.16-33.28-53.76-66.56-81.92-102.4 38.4-12.8 76.8-28.16 115.2-40.96l-79.36-79.36c43.52-12.8 81.92-33.28 122.88-46.08-33.28-23.04-71.68-43.52-110.08-58.88 92.16 2.56 189.44 2.56 276.48-25.6 40.96-12.8 81.92-35.84 102.4-74.24 25.6-48.64 10.24-112.64-25.6-153.6s-89.6-64-143.36-74.24-110.08-12.8-163.84-20.48c-30.72-5.12-66.56-17.92-69.12-48.64-5.12-23.04 25.6-43.52 53.76-56.32z" fill="#605E5E" p-id="37762"></path></svg>