<?xml version="1.0" standalone="no"?><!DOCTYPE svg PUBLIC "-//W3C//DTD SVG 1.1//EN" "http://www.w3.org/Graphics/SVG/1.1/DTD/svg11.dtd"><svg t="1648127000678" class="icon" viewBox="0 0 1024 1024" version="1.1" xmlns="http://www.w3.org/2000/svg" p-id="38032" xmlns:xlink="http://www.w3.org/1999/xlink" width="20" height="20"><defs><style type="text/css"></style></defs><path d="M0 1006.08c0 15.36 2.56 17.92 17.92 17.92h988.16c15.36 0 17.92-2.56 17.92-17.92V0H0v1006.08z m568.32-107.52c-64 38.4-145.92 17.92-184.32-46.08-7.68-10.24-10.24-12.8-20.48-2.56-46.08 46.08-112.64 43.52-158.72-2.56-40.96-43.52-38.4-115.2 7.68-156.16 46.08-40.96 115.2-35.84 156.16 12.8 2.56 2.56 5.12 7.68 7.68 10.24 15.36-23.04 33.28-40.96 56.32-53.76 69.12-33.28 145.92-7.68 181.76 58.88 38.4 64 15.36 145.92-46.08 179.2z m-225.28-637.44c0 15.36 2.56 20.48 20.48 17.92 25.6-2.56 48.64 5.12 66.56 23.04 30.72 23.04 38.4 56.32 33.28 92.16-2.56 10.24-2.56 12.8 7.68 10.24 69.12-7.68 117.76 40.96 110.08 112.64 0 10.24 0 10.24 7.68 7.68 74.24-15.36 130.56 48.64 115.2 112.64-2.56 10.24 5.12 7.68 10.24 7.68 40.96-2.56 71.68 25.6 74.24 64v10.24c-15.36-12.8-30.72-23.04-46.08-35.84-135.68-112.64-263.68-235.52-378.88-368.64-2.56-2.56-5.12-7.68-7.68-10.24l-2.56-2.56c-30.72-30.72-56.32-66.56-81.92-99.84 35.84-10.24 71.68 20.48 71.68 58.88zM156.16 104.96c202.24 281.6 442.88 522.24 724.48 724.48-71.68 12.8-140.8 15.36-209.92 5.12-12.8-2.56-12.8-5.12-10.24-17.92 15.36-71.68-15.36-140.8-79.36-176.64-61.44-35.84-138.24-28.16-192 20.48-7.68 7.68-12.8 7.68-20.48 0-15.36-12.8-35.84-20.48-56.32-23.04-7.68-2.56-15.36-5.12-20.48-12.8-84.48-99.84-133.12-212.48-145.92-340.48-5.12-56.32-2.56-115.2 10.24-179.2z" fill="#35AC14" p-id="38033"></path><path d="M583.68 798.72h-125.44c-10.24 0-12.8 2.56-10.24 12.8 5.12 33.28 35.84 61.44 71.68 61.44s66.56-25.6 74.24-61.44c0-10.24-2.56-12.8-10.24-12.8z" fill="#36AC15" p-id="38034"></path><path d="M322.56 791.04c-33.28-5.12-69.12-12.8-102.4-17.92-7.68-2.56-7.68 2.56-10.24 7.68-2.56 33.28 28.16 61.44 61.44 61.44 25.6 0 48.64-15.36 56.32-38.4 5.12-7.68 5.12-12.8-5.12-12.8z" fill="#35AC14" p-id="38035"></path><path d="M473.6 760.32c12.8 0 23.04-10.24 23.04-20.48 0-12.8-10.24-20.48-20.48-20.48-12.8 0-23.04 10.24-23.04 20.48s7.68 20.48 20.48 20.48z" fill="#39AB19" p-id="38036"></path><path d="M573.44 721.92c-10.24 0-20.48 7.68-20.48 20.48s7.68 23.04 20.48 20.48c12.8 0 20.48-7.68 20.48-20.48 2.56-7.68-7.68-17.92-20.48-20.48z" fill="#3AAB1B" p-id="38037"></path><path d="M317.44 727.04c-10.24 0-17.92 5.12-17.92 17.92 0 12.8 7.68 17.92 17.92 17.92 10.24 0 17.92-7.68 17.92-17.92 0-10.24-5.12-15.36-17.92-17.92z" fill="#3BAA1C" p-id="38038"></path><path d="M235.52 747.52c10.24 0 12.8-5.12 15.36-15.36 0-10.24-5.12-15.36-15.36-15.36-10.24 0-15.36 5.12-15.36 15.36 0 7.68 5.12 15.36 15.36 15.36z" fill="#39A81B" p-id="38039"></path></svg>