<?xml version="1.0" standalone="no"?><!DOCTYPE svg PUBLIC "-//W3C//DTD SVG 1.1//EN" "http://www.w3.org/Graphics/SVG/1.1/DTD/svg11.dtd"><svg t="1648128143605" class="icon" viewBox="0 0 1024 1024" version="1.1" xmlns="http://www.w3.org/2000/svg" p-id="52103" xmlns:xlink="http://www.w3.org/1999/xlink" width="20" height="20"><defs><style type="text/css"></style></defs><path d="M1013.76 307.264s-9.984-70.570667-40.704-101.632c-38.933333-40.789333-82.56-41.002667-102.592-43.392C727.168 151.893333 512.213333 151.893333 512.213333 151.893333h-0.426666s-214.954667 0-358.250667 10.346667c-20.010667 2.389333-63.658667 2.602667-102.613333 43.392C20.245333 236.693333 10.24 307.264 10.24 307.264S0 390.122667 0 473.002667v77.674666c0 82.858667 10.24 165.738667 10.24 165.738667s9.984 70.570667 40.704 101.632c38.933333 40.789333 90.112 39.509333 112.896 43.776 81.92 7.850667 348.16 10.282667 348.16 10.282667s215.168-0.32 358.464-10.666667c20.010667-2.410667 63.658667-2.602667 102.613333-43.392 30.698667-31.061333 40.704-101.632 40.704-101.632S1024 633.536 1024 550.677333v-77.674666c0-82.88-10.24-165.738667-10.24-165.738667z" fill="#DC2217" p-id="52104"></path><path d="M406.293333 644.821333l-0.064-287.722666 276.693334 144.362666-276.629334 143.36z" fill="#FFFFFF" p-id="52105"></path></svg>