<svg id="a2bf0e62-d46b-4c0f-9d8e-4cf60e4b73ff" data-name="Layer 1" xmlns="http://www.w3.org/2000/svg" width="1127.55775" height="833.65458" viewBox="0 0 1127.55775 833.65458"><title>art</title><path d="M700.23573,167.79894V584.78827a18.69359,18.69359,0,0,1-18.69359,18.69359H80.71482a13.17727,13.17727,0,0,1-13.17728-13.17727V219.29951a84.83637,84.83637,0,0,1,84.83637-84.83637h514.526A33.33581,33.33581,0,0,1,700.23573,167.79894Z" transform="translate(-36.22112 -33.17271)" fill="#f2f2f2"/><path d="M477.10319,507.32936a217.01565,217.01565,0,0,1-22.30592,96.1525H80.71482a13.17727,13.17727,0,0,1-13.17728-13.17727V403.22039a218.005,218.005,0,0,1,409.56565,104.109Z" transform="translate(-36.22112 -33.17271)" fill="#2f2e41"/><path d="M700.23573,472.53828v112.25a18.69359,18.69359,0,0,1-18.69359,18.69359H79.8863a13.08269,13.08269,0,0,1-13.0827-13.0788l0-.133c0-93.49547,290.799-173.24335,373.48278-204.21034a218.25974,218.25974,0,0,1,259.94939,86.47855Z" transform="translate(-36.22112 -33.17271)" fill="#3f3d56"/><circle cx="564.92614" cy="229.73844" r="54.31516" fill="#ff6584"/><path d="M317.58257,275.37317c0,105.94884-62.9849,142.94222-140.68072,142.94222S36.22112,381.322,36.22112,275.37317,176.90185,34.64069,176.90185,34.64069,317.58257,169.42433,317.58257,275.37317Z" transform="translate(-36.22112 -33.17271)" fill="#4285f4"/><polygon points="135.556 368.936 136.997 280.266 196.958 170.569 137.222 266.356 137.87 226.487 179.195 147.122 138.042 215.936 138.042 215.936 139.206 144.229 183.459 81.045 139.39 132.953 140.118 1.468 135.543 175.531 135.919 168.35 90.928 99.484 135.198 182.134 131.006 262.219 130.881 260.093 79.014 187.621 130.724 267.603 130.2 277.618 130.106 277.769 130.149 278.591 119.513 481.772 133.723 481.772 135.428 376.825 187.011 297.04 135.556 368.936" fill="#3f3d56"/><path d="M546.96053,226.81636c0,85.22457-50.66465,114.9818-113.16267,114.9818S320.6352,312.04093,320.6352,226.81636,433.79786,33.17271,433.79786,33.17271,546.96053,141.5918,546.96053,226.81636Z" transform="translate(-36.22112 -33.17271)" fill="#4285f4"/><polygon points="393.454 295.589 394.613 224.263 442.846 136.024 394.795 213.075 395.316 181.004 428.558 117.163 395.454 172.517 395.454 172.517 396.391 114.836 431.987 64.011 396.538 105.766 397.124 0 393.444 140.015 393.747 134.239 357.556 78.843 393.166 145.327 389.794 209.746 389.694 208.036 347.972 149.74 389.567 214.077 389.146 222.133 389.07 222.254 389.105 222.916 380.549 386.353 391.98 386.353 393.351 301.935 434.845 237.756 393.454 295.589" fill="#3f3d56"/><path d="M780.091,347.0379c0,57.37632-34.10931,77.41-76.18528,77.41s-76.18527-20.03367-76.18527-77.41,76.18527-130.368,76.18527-130.368S780.091,289.66159,780.091,347.0379Z" transform="translate(-36.22112 -33.17271)" fill="#4285f4"/><polygon points="664.909 382.498 665.689 334.48 698.161 275.073 665.812 326.947 666.162 305.355 688.542 262.376 666.255 299.642 666.255 299.642 666.886 260.809 690.851 226.592 666.985 254.703 667.38 183.497 664.902 277.76 665.106 273.872 640.741 236.577 664.715 281.337 662.445 324.706 662.377 323.555 634.289 284.308 662.292 327.622 662.008 333.045 661.958 333.127 661.981 333.572 656.221 443.604 663.917 443.604 664.84 386.771 692.775 343.563 664.909 382.498" fill="#3f3d56"/><path d="M218.45278,452.89977c-3.37171,5.37839-7.74635,5.2519-11.69051,2.77931s-5.96426-6.35495-2.59254-11.73334,14.80258-7.74355,14.80258-7.74355S221.82449,447.52137,218.45278,452.89977Z" transform="translate(-36.22112 -33.17271)" fill="#4285f4"/><path d="M113.49241,467.57954c-3.37171,5.3784-7.74636,5.2519-11.69051,2.77932s-5.96426-6.355-2.59255-11.73335,14.80259-7.74355,14.80259-7.74355S116.86412,462.20114,113.49241,467.57954Z" transform="translate(-36.22112 -33.17271)" fill="#4285f4"/><path d="M485.58288,441.70727c.62394,6.31714-2.91364,8.89378-7.54622,9.35133s-8.60586-1.37722-9.22981-7.69437,6.97032-15.182,6.97032-15.182S484.95893,435.39013,485.58288,441.70727Z" transform="translate(-36.22112 -33.17271)" fill="#4285f4"/><path d="M364.51652,363.35316c-3.37171,5.37839-7.74636,5.2519-11.69052,2.77931s-5.96425-6.355-2.59254-11.73335,14.80259-7.74354,14.80259-7.74354S367.88823,357.97476,364.51652,363.35316Z" transform="translate(-36.22112 -33.17271)" fill="#4285f4"/><path d="M643.43219,446.29387c-3.37171,5.3784-7.74636,5.2519-11.69051,2.77932s-5.96426-6.355-2.59255-11.73335,14.80259-7.74355,14.80259-7.74355S646.8039,440.91547,643.43219,446.29387Z" transform="translate(-36.22112 -33.17271)" fill="#4285f4"/><path d="M1123.091,537.82729c0,176.17883-79.99182,315.16327-178.5,319-128.46253,5.00342-296.35675-123.08576-178.5-319,90.81781-150.96723,79.91717-319,178.5-319S1123.091,361.64845,1123.091,537.82729Z" transform="translate(-36.22112 -33.17271)" fill="#f2f2f2"/><ellipse cx="857.86982" cy="816.65458" rx="159" ry="17" fill="#3f3d56"/><path d="M1030.58288,638.70727c.62394,6.31714-2.91364,8.89378-7.54622,9.35133s-8.60586-1.37722-9.22981-7.69437,6.97032-15.182,6.97032-15.182S1029.95893,632.39013,1030.58288,638.70727Z" transform="translate(-36.22112 -33.17271)" fill="#4285f4"/><path d="M965.49241,620.57954c-3.37171,5.3784-7.74636,5.2519-11.69051,2.77932s-5.96426-6.355-2.59255-11.73335,14.80259-7.74355,14.80259-7.74355S968.86412,615.20114,965.49241,620.57954Z" transform="translate(-36.22112 -33.17271)" fill="#4285f4"/><path d="M961.83454,765.94013s7.52953,32.76242,19.25811,39.82346-28.627,20.45094-28.627,20.45094-17.56379,10.88853-22.126,14.82578-24.11385,12.36073-20.89109,6.10451,8.88441-18.15314,17.82464-28.03728,20.69391-27.57855,10.45516-41.35981S961.83454,765.94013,961.83454,765.94013Z" transform="translate(-36.22112 -33.17271)" fill="#ffb9b9"/><path d="M921.06243,367.36764l-3.94653-1.40948s-10.14822-1.40948-19.45076,10.43012-30.58563,47.78123-30.58563,47.78123l-7.89306,18.60508,27.90762.84569,21.00119-46.23081Z" transform="translate(-36.22112 -33.17271)" fill="#ff6584"/><path d="M921.06243,367.36764l-3.94653-1.40948s-10.14822-1.40948-19.45076,10.43012-30.58563,47.78123-30.58563,47.78123l-7.89306,18.60508,27.90762.84569,21.00119-46.23081Z" transform="translate(-36.22112 -33.17271)" opacity="0.1"/><path d="M916.834,653.63217s15.92707,3.52369,13.24907,15.78613,16.63181,28.18951,18.46413,30.86752,4.51032,3.80558,2.819,7.89306,39.32438,61.735,31.14942,66.9501-74.42032,25.65246-80.34012,21.565-10.712-137.84673-10.712-137.84673Z" transform="translate(-36.22112 -33.17271)" fill="#2f2e41"/><path d="M916.834,653.63217s15.92707,3.52369,13.24907,15.78613,16.63181,28.18951,18.46413,30.86752,4.51032,3.80558,2.819,7.89306,39.32438,61.735,31.14942,66.9501-74.42032,25.65246-80.34012,21.565-10.712-137.84673-10.712-137.84673Z" transform="translate(-36.22112 -33.17271)" opacity="0.1"/><path d="M880.61048,799.09007s-9.86633,32.13605-3.2418,44.11659-35.01783,3.3911-35.01783,3.3911-20.65507.64408-26.57487,1.77166-27.06332-1.35718-21.14352-5.16276,16.77276-11.27581,29.458-15.36329,31.71321-13.531,29.73994-30.58562S880.61048,799.09007,880.61048,799.09007Z" transform="translate(-36.22112 -33.17271)" fill="#ffb9b9"/><path d="M862.14635,477.87054a31.065,31.065,0,0,1,18.746-5.77885c10.853.42284,46.37176,8.87969,45.38512,10.57106a35.63138,35.63138,0,0,1-3.24179,4.22843s2.25516,10.28918,1.26853,11.27581,19.30982,24.243,7.47022,74.13842-10.57107,84.4276-10.57107,84.4276,4.79222,146.30359-8.8797,149.26349-67.51389.98663-70.05094-4.79222,7.75211-185.20512,7.75211-185.20512,1.12759-90.20645,3.80559-101.20036S862.14635,477.87054,862.14635,477.87054Z" transform="translate(-36.22112 -33.17271)" fill="#2f2e41"/><circle cx="888.01263" cy="283.38332" r="33.96837" fill="#ffb9b9"/><path d="M919.08917,339.03717s21.00119,20.57835-4.93317,36.50543c-18.2613,11.21482,44.11659-8.73875,44.11659-8.73875S945.30542,333.68117,947.27868,326.07,919.08917,339.03717,919.08917,339.03717Z" transform="translate(-36.22112 -33.17271)" fill="#ffb9b9"/><path d="M924.30423,371.17322s29.17615-13.39,33.96836-8.5978,25.51152,24.52488,2.9599,59.47988-26.921,61.17125-30.72657,64.13114-6.20169-3.80558-6.20169-3.80558-10.99391-10.00728-18.18224-10.00728-37.9149,3.38274-37.9149,3.38274l8.5978-34.10931s-4.22842-26.921,10.14823-40.311,30.16278-35.37784,30.16278-35.37784L925.257,364.471l-5.3757,6.84585S919.08917,373.42838,924.30423,371.17322Z" transform="translate(-36.22112 -33.17271)" fill="#ff6584"/><path d="M1001.25781,600.64725c-58.90466-21.51351-66.68253-64.04312-50.90595-107.23987s49.13333-70.70292,108.038-49.18941,105.27466,127.09674,105.27466,127.09674S1060.16247,622.16077,1001.25781,600.64725Z" transform="translate(-36.22112 -33.17271)" fill="#4285f4"/><polygon points="924.182 460.676 973.187 479.482 1022 535.094 980.875 482.432 1002.91 490.888 1038.643 529.979 1008.741 493.126 1008.741 493.126 1048.371 508.334 1074.514 545.767 1054.603 510.725 1127.558 537.829 1031.712 499.941 1035.628 501.608 1083.052 490.578 1028.111 498.408 984.438 479.816 985.645 480.178 1036.469 466.057 981.502 478.566 976.04 476.241 975.975 476.158 975.509 476.015 864.706 428.845 861.82 436.745 919.822 459.003 953.706 503.883 924.182 460.676" fill="#3f3d56"/><path d="M857.21318,445.59354s-12.54433,16.91371-4.22843,23.25635,25.79341-4.51032,25.79341-4.51032,40.311,28.04857,39.74722,11.5577-29.45805-27.90762-29.45805-27.90762l-19.45076.56379,2.9599-9.72538-8.175-.84569Z" transform="translate(-36.22112 -33.17271)" fill="#ffb9b9"/><path d="M857.21318,445.59354s-12.54433,16.91371-4.22843,23.25635,25.79341-4.51032,25.79341-4.51032,40.311,28.04857,39.74722,11.5577-29.45805-27.90762-29.45805-27.90762l-19.45076.56379,2.9599-9.72538-8.175-.84569Z" transform="translate(-36.22112 -33.17271)" opacity="0.1"/><path d="M941.35889,413.03465s-79.21254,61.0303-84.28666,39.60627c-3.2977-13.92363-.76113-48.20765,1.41912-70.50629a69.10658,69.10658,0,0,1,20.46906-42.801c4.75235-4.62985,9.16056-7.53509,11.37545-5.37054,6.2017,6.06075-14.5176,30.30373-14.5176,30.30373s-3.38274,49.1907,3.38274,54.82861c0,0,24.51045-23.66724,29.59178-23.32085S941.35889,413.03465,941.35889,413.03465Z" transform="translate(-36.22112 -33.17271)" fill="#ffb9b9"/><path d="M993.82761,348.31895c-6.489-9.76788-11.84664-25.47853-17.62788-39.31508-1.87365-4.4843-3.5854-9.02717-5.26147-13.589-3.37815-9.19447-18.08545-21.06265-37.347-21.06265-22.01537,0-39.86231,11.07871-39.86231,20.37407,0,7.68515,12.204,14.16251,28.87227,16.17768-5.85607,13.07122-9.384,27.5777-9.384,37.415,0,22.26,18.04525,12.84452,40.30522,12.84452S1006.14508,366.86043,993.82761,348.31895Z" transform="translate(-36.22112 -33.17271)" fill="#2f2e41"/><path d="M958.27259,374.97881s14.09476,35.94163-17.61844,44.11659c0,0-6.2017-8.5978-16.34992-10.00728s-19.16887-11.98054-19.16887-11.98054,20.71929-29.17615,36.92826-29.73994S958.27259,374.97881,958.27259,374.97881Z" transform="translate(-36.22112 -33.17271)" fill="#ff6584"/></svg>