<svg id="e22abf0b-c612-4aa4-ad53-907679e19640" data-name="Layer 1" xmlns="http://www.w3.org/2000/svg" width="737.91299" height="622.43932" viewBox="0 0 737.91299 622.43932"><path d="M968.95649,622.70817c-.1554,3.8223-4.01911,82.72322-57.0237,125.83542q-3.32511,2.70356-6.90919,5.21031l-1.80237-1.7609h1.04622a4.66173,4.66173,0,0,0,4.66134-4.66134v-155.523c1.10837-5.96653,2.15459-11.82943,3.10756-17.537,5.1689-31.02381,7.56171-57.23089,3.68763-68.11771,1.67808,4.20556,35.36405,90.22278,17.07084,177.86637C950.912,659.21162,968.10709,633.17026,968.95649,622.70817Z" transform="translate(-231.04351 -138.78034)" fill="#f1e05a"/><path d="M903.01491,148.341H264.789a7.77837,7.77837,0,0,0-7.7689,7.7689V747.58208a7.77176,7.77176,0,0,0,7.7689,7.7689H903.01491a7.75148,7.75148,0,0,0,7.66534-6.557,6.68255,6.68255,0,0,0,.10356-1.21193V156.10991A7.77837,7.77837,0,0,0,903.01491,148.341Zm4.66134,599.24107a4.66173,4.66173,0,0,1-4.66134,4.66134H264.789a4.66173,4.66173,0,0,1-4.66134-4.66134V156.10991a4.66834,4.66834,0,0,1,4.66134-4.66134H903.01491a4.66834,4.66834,0,0,1,4.66134,4.66134Z" transform="translate(-231.04351 -138.78034)" fill="#e6e6e6"/><path d="M605.12246,206.79967c-1.30017,0-2.3578,2.25686-2.3578,5.03127V419.79025c0,2.7744,1.05763,5.03127,2.3578,5.03127H830.68618c1.30017,0,2.35781-2.25687,2.35781-5.03127V211.83094c0-2.77441-1.05764-5.03127-2.35781-5.03127Z" transform="translate(-231.04351 -138.78034)" fill="#e6e6e6"/><path id="ed9c03b2-1449-4b71-9e3b-3c62ff7f07bc" data-name="Path 40" d="M338.67317,206.39911a3.755,3.755,0,0,0,0,7.50892H515.67771a3.755,3.755,0,1,0,.12329-7.50892q-.06165-.001-.12329,0Z" transform="translate(-231.04351 -138.78034)" fill="#e6e6e6"/><path id="ac2fe172-b9d2-4839-b8ea-2891040e5ba3" data-name="Path 40" d="M338.67317,241.61812a3.755,3.755,0,0,0,0,7.50892H515.67771a3.755,3.755,0,1,0,.12329-7.50892q-.06165-.001-.12329,0Z" transform="translate(-231.04351 -138.78034)" fill="#e6e6e6"/><path id="a98745e5-eae5-4ee7-991c-f32673123033" data-name="Path 40" d="M338.67317,276.83713a3.755,3.755,0,0,0,0,7.50892H515.67771a3.755,3.755,0,1,0,.12329-7.50892q-.06165-.001-.12329,0Z" transform="translate(-231.04351 -138.78034)" fill="#e6e6e6"/><path id="bf8b9df3-8875-4369-b4ec-4c359de04021" data-name="Path 40" d="M338.67317,312.05613a3.755,3.755,0,0,0,0,7.50893H515.67771a3.755,3.755,0,0,0,.12329-7.50893q-.06165-.001-.12329,0Z" transform="translate(-231.04351 -138.78034)" fill="#e6e6e6"/><path id="b5eb4171-b419-4870-b9cb-48e35e493bb4" data-name="Path 40" d="M338.67317,347.27514a3.755,3.755,0,0,0,0,7.50893H515.67771a3.755,3.755,0,0,0,.12329-7.50893q-.06165-.001-.12329,0Z" transform="translate(-231.04351 -138.78034)" fill="#e6e6e6"/><path id="b4317b62-1760-4cf8-b114-3696958a8a67" data-name="Path 40" d="M338.67317,382.49415a3.755,3.755,0,0,0,0,7.50892H515.67771a3.755,3.755,0,1,0,.12329-7.50892q-.06165-.001-.12329,0Z" transform="translate(-231.04351 -138.78034)" fill="#e6e6e6"/><path id="ad76e78f-41a7-44a0-87c5-7c68f3e63063" data-name="Path 40" d="M338.67317,417.71316a3.755,3.755,0,0,0,0,7.50892H515.67771a3.755,3.755,0,1,0,.12329-7.50892q-.06165-.001-.12329,0Z" transform="translate(-231.04351 -138.78034)" fill="#e6e6e6"/><path id="a20c62a3-d58f-423a-bfc7-4f2831a53e7a" data-name="Path 40" d="M339.30938,491.784c-2.55421.034-4.59078,1.74257-4.54885,3.81611.04093,2.02555,2.05375,3.65956,4.54885,3.69282H828.34265c2.5542.034,4.65873-1.61928,4.70071-3.69282s-1.99472-3.78209-4.54885-3.81611q-.07593-.001-.15186,0Z" transform="translate(-231.04351 -138.78034)" fill="#e6e6e6"/><path id="b339e3e9-0bf0-431c-bdc4-4a1671822a7b" data-name="Path 40" d="M339.30938,524.784c-2.55421.034-4.59078,1.74257-4.54885,3.81611.04093,2.02555,2.05375,3.65956,4.54885,3.69282H828.34265c2.5542.034,4.65873-1.61928,4.70071-3.69282s-1.99472-3.78209-4.54885-3.81611q-.07593-.001-.15186,0Z" transform="translate(-231.04351 -138.78034)" fill="#e6e6e6"/><path id="bab9b888-deda-4f86-84ee-5631e8d8031a" data-name="Path 40" d="M339.30938,557.784c-2.55421.034-4.59078,1.74257-4.54885,3.81611.04093,2.02555,2.05375,3.65956,4.54885,3.69282H828.34265c2.5542.034,4.65873-1.61928,4.70071-3.69282s-1.99472-3.78209-4.54885-3.81611q-.07593-.001-.15186,0Z" transform="translate(-231.04351 -138.78034)" fill="#e6e6e6"/><path id="ba4803b1-6f87-4394-9362-31b3dc635e82" data-name="Path 40" d="M339.30938,590.784c-2.55421.034-4.59078,1.74257-4.54885,3.81611.04093,2.02555,2.05375,3.65956,4.54885,3.69282H828.34265c2.5542.034,4.65873-1.61928,4.70071-3.69282s-1.99472-3.78209-4.54885-3.81611q-.07593-.001-.15186,0Z" transform="translate(-231.04351 -138.78034)" fill="#e6e6e6"/><path id="b9a1750e-efcd-4183-b5b9-e97a203cae9b" data-name="Path 40" d="M339.30938,623.784c-2.55421.034-4.59078,1.74257-4.54885,3.81611.04093,2.02555,2.05375,3.65956,4.54885,3.69282H828.34265c2.5542.034,4.65873-1.61928,4.70071-3.69282s-1.99472-3.78209-4.54885-3.81611q-.07593-.001-.15186,0Z" transform="translate(-231.04351 -138.78034)" fill="#e6e6e6"/><path id="a27b2d6d-7ecd-44cf-acba-3e7ac71f51d4" data-name="Path 40" d="M339.30938,656.784c-2.55421.034-4.59078,1.74257-4.54885,3.81611.04093,2.02555,2.05375,3.65956,4.54885,3.69282H828.34265c2.5542.034,4.65873-1.61928,4.70071-3.69282s-1.99472-3.78209-4.54885-3.81611q-.07593-.001-.15186,0Z" transform="translate(-231.04351 -138.78034)" fill="#e6e6e6"/><path id="befd801f-fd34-4cb7-a0c2-8d98396e21e0" data-name="Path 40" d="M339.30938,689.784c-2.55421.034-4.59078,1.74257-4.54885,3.81611.04093,2.02555,2.05375,3.65956,4.54885,3.69282H828.34265c2.5542.034,4.65873-1.61928,4.70071-3.69282s-1.99472-3.78209-4.54885-3.81611q-.07593-.001-.15186,0Z" transform="translate(-231.04351 -138.78034)" fill="#e6e6e6"/><ellipse cx="301.04342" cy="755.87948" rx="70" ry="5.33898" transform="translate(-232.25632 -138.29618) rotate(-0.09196)" fill="#e6e6e6"/><path d="M292.8985,557.38748l-3.11067,18.57037a10.60421,10.60421,0,0,1-14.60353,8.00865h0a10.6042,10.6042,0,0,1-5.40962-14.36025l7.28771-15.13818,10.60786-72.08641L307.224,487.631Z" transform="translate(-231.04351 -138.78034)" fill="#ffb8b8"/><polygon points="46.613 579.563 31.188 582.248 44.238 477.363 69.331 479.5 46.613 579.563" fill="#ffb8b8"/><polygon points="110.992 579.46 95.567 582.145 108.617 477.26 133.71 479.396 110.992 579.46" fill="#ffb8b8"/><circle cx="99.1923" cy="268.64586" r="19.35716" fill="#ffb8b8"/><polygon points="100.977 306.53 78.627 304.438 81.764 269.849 107.835 269.807 100.977 306.53" fill="#ffb8b8"/><path d="M369.03136,631.47141,268.453,619.39551c2.18472-19.10083,5.457-36.37586,10.25534-51.08881,7.17329-21.995,17.75722-38.26421,33.217-46.3476l-.02818-17.55787L303.501,450.814a13.03734,13.03734,0,0,1,12.85927-15.05542l17.24365,1.5685,21.73145,26.06617a34.95292,34.95292,0,0,1,7.83576,26.722l-7.571,60.50491Z" transform="translate(-231.04351 -138.78034)" fill="#2f2e41"/><path d="M311.88908,495.576l-31.18475-10.75595,12.5319-36.33376a14.43105,14.43105,0,0,1,11.75-9.601h0a14.431,14.431,0,0,1,15.95242,17.55782Z" transform="translate(-231.04351 -138.78034)" fill="#2f2e41"/><path d="M289.98113,755.38363c-12.79746-.32732-9.76506,1.45434-12.79746-.32732-8.97046-5.27053-12.6554-11.76505-13.83091,1.61837l-4.78766.53974c-4.22748-14.35329-3.03666-25.32708,2.60648-33.52384l1.58422-7.45136,15.42794-1.08887c1.36647,14.39926,7.63423,25.87027,14.49582,30.86949a5.32784,5.32784,0,0,1,1.78119,2.18152h0A5.14969,5.14969,0,0,1,289.98113,755.38363Z" transform="translate(-231.04351 -138.78034)" fill="#2f2e41"/><path d="M354.36,755.2803c-12.79746-.32732-9.76506,1.45434-12.79746-.32732-8.97046-5.27053-12.6554-11.765-13.83091,1.61837l-4.78766.53974c-4.22747-14.35329-3.03666-25.32708,2.60649-33.52384l1.58421-7.45136L342.5626,715.047c1.36647,14.39926,7.63423,25.87027,14.49583,30.86949a5.3279,5.3279,0,0,1,1.78118,2.18152h0A5.14967,5.14967,0,0,1,354.36,755.2803Z" transform="translate(-231.04351 -138.78034)" fill="#2f2e41"/><path d="M343.09868,402.8066l9.86219-4.8413-.00192-1.19666c-.01674-10.42849-7.99595-18.96251-18.02905-19.28263h0s-20.22758-11.235-34.13156,7.486-6.41533,51.08787-6.41533,51.08787l20.85772-3.22582,1.188-7.06368,3.49415,6.62941,12.19127-.62275s2.18878-14.28965,1.70786-21.11416C333.10962,400.55378,341.01336,400.73145,343.09868,402.8066Z" transform="translate(-231.04351 -138.78034)" fill="#2f2e41"/><path d="M358.82664,571.89728l2.823,18.61628a10.60419,10.60419,0,0,1-11.386,12.15565h0a10.60419,10.60419,0,0,1-9.61-11.96365l2.21474-16.65443-12.35259-71.808,20.21645-1.09656Z" transform="translate(-231.04351 -138.78034)" fill="#ffb8b8"/><path d="M354.99379,504.33206l-32.98751.05294-.06169-38.43418a14.431,14.431,0,0,1,7.95656-12.92031h0A14.431,14.431,0,0,1,350.725,464.3939Z" transform="translate(-231.04351 -138.78034)" fill="#2f2e41"/><path d="M470.13649,289.97571a2.19,2.19,0,0,1-.8904-.182,2.14446,2.14446,0,0,1-1.30992-1.9713l-1.07789-145.9819a2.17222,2.17222,0,0,1,2.1484-2.19109l88.3339-.869a2.17224,2.17224,0,0,1,2.1911,2.14841l1.07788,145.9819a2.17,2.17,0,0,1-3.6103,1.64462h.00035l-42.60138-37.80946a.719.719,0,0,0-.97081.00955l-41.84964,38.64027A2.14747,2.14747,0,0,1,470.13649,289.97571Z" transform="translate(-231.04351 -138.78034)" fill="#f1e05a"/><path d="M529.25356,189.15206l-13.18689.3164-.31641-13.187a4.397,4.397,0,1,0-8.79143.21094l.31641,13.187-13.187.31641a4.39692,4.39692,0,0,0,.21094,8.7913l13.187-.31641.3164,13.187a4.397,4.397,0,0,0,8.79143-.21094l-.31641-13.187,13.18689-.3164a4.39692,4.39692,0,1,0-.21093-8.7913Z" transform="translate(-231.04351 -138.78034)" fill="#fff"/></svg>