<svg id="ea878d0f-c60d-4637-874b-f3bcf7dfa137" data-name="Layer 1" xmlns="http://www.w3.org/2000/svg" width="1038.65488" height="623.4365" viewBox="0 0 1038.65488 623.4365"><title>annotation</title><path d="M1072.18368,732.07355c-13.8966,25.87622-743.44869,23.704-742.34318-.00153C343.73691,706.19734,1073.289,708.36958,1072.18368,732.07355Z" transform="translate(-80.67256 -138.28175)" fill="#d0cde1"/><rect x="691.54909" y="38.07636" width="122.46182" height="105.99636" fill="#2f2e41"/><rect x="276.82545" y="67.92" width="350.92" height="291.23273" fill="#3f3d56"/><rect x="382.30727" y="116.28727" width="139.95636" height="17.49455" fill="#fff"/><rect x="324.67818" y="157.45091" width="97.24909" height="10.29091" fill="#fff"/><rect x="402.88909" y="225.37091" width="97.24909" height="10.29091" fill="#fff"/><rect x="481.1" y="157.45091" width="97.24909" height="10.29091" fill="#4285f4"/><rect x="708.01455" y="97.76364" width="88.50182" height="4.76431" fill="#4285f4"/><rect x="706.98545" y="108.24512" width="88.50182" height="4.76431" fill="#4285f4"/><rect x="708.01455" y="118.7266" width="88.50182" height="4.76431" fill="#4285f4"/><rect x="708.01455" y="62.77455" width="88.50182" height="4.76431" fill="#4285f4"/><rect x="706.98545" y="73.25603" width="88.50182" height="4.76431" fill="#4285f4"/><rect x="708.01455" y="83.73751" width="88.50182" height="4.76431" fill="#4285f4"/><rect x="726.53818" y="73.06545" width="122.46182" height="105.99636" fill="#3f3d56"/><rect x="743.00364" y="132.75273" width="88.50182" height="4.76431" fill="#4285f4"/><rect x="741.97455" y="143.23421" width="88.50182" height="4.76431" fill="#4285f4"/><rect x="743.00364" y="153.71569" width="88.50182" height="4.76431" fill="#4285f4"/><rect x="743.00364" y="97.76364" width="88.50182" height="4.76431" fill="#4285f4"/><rect x="741.97455" y="108.24512" width="88.50182" height="4.76431" fill="#4285f4"/><rect x="743.00364" y="118.7266" width="88.50182" height="4.76431" fill="#4285f4"/><rect y="114.22909" width="122.46182" height="105.99636" fill="#3f3d56"/><rect x="16.46545" y="173.91636" width="88.50182" height="4.76431" fill="#4285f4"/><rect x="15.43636" y="184.39785" width="88.50182" height="4.76431" fill="#4285f4"/><rect x="16.46545" y="194.87933" width="88.50182" height="4.76431" fill="#4285f4"/><rect x="16.46545" y="138.92727" width="88.50182" height="4.76431" fill="#4285f4"/><rect x="15.43636" y="149.40875" width="88.50182" height="4.76431" fill="#4285f4"/><rect x="16.46545" y="159.89024" width="88.50182" height="4.76431" fill="#4285f4"/><rect x="324.67818" y="191.41091" width="255.21455" height="10.29091" fill="#fff"/><rect x="324.67818" y="225.37091" width="57.11455" height="10.29091" fill="#4285f4"/><rect x="324.67818" y="293.29091" width="57.11455" height="10.29091" fill="#fff"/><rect x="521.23455" y="225.37091" width="57.11455" height="10.29091" fill="#fff"/><rect x="324.67818" y="259.33091" width="255.21455" height="10.29091" fill="#fff"/><rect x="430.16" y="293.29091" width="149.73273" height="10.29091" fill="#fff"/><polygon points="555.497 163.222 553.863 161.971 665.313 16.465 775.935 16.465 775.935 18.524 666.33 18.524 555.497 163.222" fill="#2f2e41"/><polygon points="330.698 231.298 167.362 91.589 57.629 91.589 57.629 89.531 168.122 89.531 332.036 229.734 330.698 231.298" fill="#2f2e41"/><circle cx="775.93455" cy="16.46545" r="16.46545" fill="#4285f4"/><circle cx="57.62909" cy="90.56" r="16.46545" fill="#4285f4"/><path d="M1000.476,714.66093s24.01051-80.78623-67.29883-126.78085Z" transform="translate(-80.67256 -138.28175)" fill="#d0cde1"/><path d="M1003.46819,715.09218s9.51751-79.73181,115.85925-84.72987Z" transform="translate(-80.67256 -138.28175)" fill="#d0cde1"/><polygon points="514.823 564.05 490.004 562.396 498.277 599.624 526.405 588.042 514.823 564.05" fill="#ffb9b9"/><polygon points="742.332 494.556 684.421 438.3 651.329 463.946 585.971 542.54 593.417 554.122 672.839 500.348 726.613 570.669 777.906 545.022 742.332 494.556" fill="#2f2e41"/><polygon points="742.332 494.556 684.421 438.3 651.329 463.946 585.971 542.54 593.417 554.122 672.839 500.348 726.613 570.669 777.906 545.022 742.332 494.556" opacity="0.1"/><path d="M827.96872,670.067l-7.44576,5.79115-60.39338-20.68267-14.06421-5.79114L717.937,655.17544s0-23.16458,26.47381-22.33727l27.30112,6.61845,32.265,2.48192Z" transform="translate(-80.67256 -138.28175)" fill="#ffb9b9"/><polygon points="801.071 593.006 782.87 604.588 761.36 604.588 661.256 567.359 514.823 593.833 510.686 562.396 644.71 503.657 762.188 542.54 801.071 593.006" fill="#2f2e41"/><path d="M764.26612,584.02708l-12.4096,2.48192-2.70424-3.15494a16.71668,16.71668,0,0,1-2.2596-18.355h0l34.74687-45.50185s9.92768-22.33728,25.6465-13.23691-13.2369,23.99189-13.2369,23.99189l-17.37344,27.30112,1.65462,14.06421Z" transform="translate(-80.67256 -138.28175)" fill="#ffb9b9"/><circle cx="762.18768" cy="359.70546" r="32.26495" fill="#ffb9b9"/><path d="M828.38237,521.56544l14.89152,35.57418,35.57418-14.89151s-11.58229-28.12843-11.58229-28.95573S828.38237,521.56544,828.38237,521.56544Z" transform="translate(-80.67256 -138.28175)" fill="#ffb9b9"/><path d="M926.34371,626.80707a185.3827,185.3827,0,0,1-9.09209,57.34061l-2.41572,7.42925-11.58229,52.94762-12.4096,3.30922-9.10037-11.58229-18.20074-13.2369-13.23691-21.51-11.35062-18.91222-3.54089-5.907-12.4096-62.048-47.15647-26.4738-15.71883-2.48192,3.30923-9.10037L777.503,557.55328l14.06421-1.65462,4.13653-3.30922,3.30923,1.65461,13.2369-7.44576,4.13654,1.65461,24.19043,2.25025,14.693-3.07755,21.12939-11.34239,8.65365,1.41471,29.783,24.81919A185.21992,185.21992,0,0,1,926.34371,626.80707Z" transform="translate(-80.67256 -138.28175)" fill="#575a89"/><path d="M578.29492,715.14235s7.40995-12.55867,4.28015-14.02487-16.42157-7.31125-16.42157-7.31125l-19.49215-6.45971s-28.126-41.801-28.74336-5.45025S538.39715,726.985,538.39715,726.985s18.81556,40.49269,29.47375,34.03569,21.32332-28.37586,21.32332-28.37586S569.97421,722.31271,578.29492,715.14235Z" transform="translate(-80.67256 -138.28175)" fill="#2f2e41"/><polygon points="836.645 481.32 805.208 502.002 758.283 544.311 754.742 538.404 744.814 488.765 747.296 488.765 772.943 441.609 836.645 481.32" opacity="0.1"/><polygon points="772.943 436.645 747.296 483.801 738.196 483.801 732.405 500.348 719.168 503.657 754.742 542.54 805.208 497.038 836.645 476.356 772.943 436.645" fill="#575a89"/><path d="M817.76468,473.99682l-3.49581,1.345a4.88017,4.88017,0,0,1-1.24759-6.86l-6.46021-.30231a48.78212,48.78212,0,0,1,72.8252-5.86988c.29411-1.013,3.50037.95787,4.80938,2.95626.43983-1.64838,3.4461,6.31994,4.50939,11.95247.49228-1.8754,2.38506,1.15217.72682,4.05727,1.05065-.15351,1.52524,2.53462.71188,4.0322,1.1494-.54.95569,2.66884-.29057,4.81326,1.64017-.14573-12.93544,22.47574-18.83686,35.696-1.71358-7.87343-3.64028-16.1643-9.16573-22.02917-.9392-.99689-1.96769-1.90487-2.99451-2.81125l-5.55369-4.90228c-6.45789-5.70042-12.33246-12.7359-20.93549-14.8664-5.91223-1.46413-9.65051-1.7947-6.42851-8.45681-2.911,1.21477-5.6294,3.02129-8.5665,4.14957C817.41133,475.96988,817.82181,474.92821,817.76468,473.99682Z" transform="translate(-80.67256 -138.28175)" fill="#2f2e41"/><circle cx="778.32015" cy="363.42834" r="5.79115" fill="#ffb9b9"/></svg>