<svg id="fc3938bc-d71c-48e3-b872-495780bbfe1a" data-name="Layer 1" xmlns="http://www.w3.org/2000/svg" width="1129" height="663" viewBox="0 0 1129 663"><title>fashion blogging</title><circle cx="321" cy="321" r="321" fill="#f2f2f2"/><ellipse cx="559" cy="635.49998" rx="514" ry="27.50002" fill="#3f3d56"/><ellipse cx="558" cy="627" rx="460" ry="22" opacity="0.2"/><rect x="131" y="152.5" width="840" height="50" fill="#3f3d56"/><path d="M166.5,727.3299A21.67009,21.67009,0,0,0,188.1701,749H984.8299A21.67009,21.67009,0,0,0,1006.5,727.3299V296h-840Z" transform="translate(-35.5 -118.5)" fill="#3f3d56"/><path d="M984.8299,236H188.1701A21.67009,21.67009,0,0,0,166.5,257.6701V296h840V257.6701A21.67009,21.67009,0,0,0,984.8299,236Z" transform="translate(-35.5 -118.5)" fill="#3f3d56"/><path d="M984.8299,236H188.1701A21.67009,21.67009,0,0,0,166.5,257.6701V296h840V257.6701A21.67009,21.67009,0,0,0,984.8299,236Z" transform="translate(-35.5 -118.5)" fill="#d23f31" opacity="0.2"/><circle cx="181" cy="147.5" r="13" fill="#3f3d56"/><circle cx="217" cy="147.5" r="13" fill="#3f3d56"/><circle cx="253" cy="147.5" r="13" fill="#3f3d56"/><rect x="168" y="213.5" width="337" height="386" rx="5.33505" fill="#d23f31" opacity="0.2"/><circle cx="319.14378" cy="264.47932" r="42.0619" fill="#3c354c"/><circle cx="316.33965" cy="303.73709" r="42.0619" fill="#3c354c"/><path d="M333.61283,392.79376s-1.86942,26.17185-10.2818,29.91069,26.17185,60.75607,26.17185,60.75607l14.02064-17.75946L352.307,433.921s8.41238-26.17184,12.15121-28.04126S333.61283,392.79376,333.61283,392.79376Z" transform="translate(-35.5 -118.5)" fill="#ffc1c7"/><path d="M333.61283,392.79376s-1.86942,26.17185-10.2818,29.91069,26.17185,60.75607,26.17185,60.75607l14.02064-17.75946L352.307,433.921s8.41238-26.17184,12.15121-28.04126S333.61283,392.79376,333.61283,392.79376Z" transform="translate(-35.5 -118.5)" opacity="0.1"/><path d="M448.582,526.45713s41.12719,21.49831,32.71481,45.80074S455.125,545.15131,455.125,545.15131l-14.02063-10.2818Z" transform="translate(-35.5 -118.5)" fill="#ffc1c7"/><path d="M448.582,590.01733s15.89,34.58423,2.80413,36.45365-14.02063-30.84539-14.02063-30.84539Z" transform="translate(-35.5 -118.5)" fill="#ffc1c7"/><path d="M380.34827,490.93819c.93471,0,8.41238,2.80413,8.41238,2.80413s28.04127,51.409,39.25778,61.69079S455.125,590.952,452.32086,592.82146,428.95314,607.7768,427.08372,604.038s-9.34709-17.75947-14.02064-20.5636-28.04126-33.64952-34.58422-36.45364-21.49831-47.67016-21.49831-47.67016Z" transform="translate(-35.5 -118.5)" fill="#d23f31"/><path d="M380.34827,490.93819c.93471,0,8.41238,2.80413,8.41238,2.80413s28.04127,51.409,39.25778,61.69079S455.125,590.952,452.32086,592.82146,428.95314,607.7768,427.08372,604.038s-9.34709-17.75947-14.02064-20.5636-28.04126-33.64952-34.58422-36.45364-21.49831-47.67016-21.49831-47.67016Z" transform="translate(-35.5 -118.5)" opacity="0.1"/><circle cx="315.8723" cy="272.42435" r="27.57391" fill="#ffc1c7"/><path d="M388.76065,493.74232s-14.95534,17.75947-16.82476,18.69418c-.701.35519-5.37457,2.42086-10.92669,4.86979-9.207,4.05667-20.85341,9.15084-20.85341,9.15084s-7.47767,4.67355-11.2165,4.67355-24.30243,10.28179-24.30243,10.28179S289.68151,552.629,280.33443,552.629s-.93471,5.60825-13.08593,4.67354-1.86942-35.51893,3.73884-40.19248,6.543-23.36772,5.60825-28.976,4.67354-26.17185,12.15122-52.3437,23.36772-15.89,23.36772-15.89,9.34709-5.60825,10.28179-5.60825,10.2818,15.89,12.15122,25.23714c1.159,5.7952,8.78629,17.694,14.41314,25.90074,3.44913,5.0381,6.15046,8.68348,6.15046,8.68348s0-1.7479-.04679-4.15946c-.07473-4.16882-.299-10.29115-.88792-12.66529-.93471-3.73884-1.86942-23.36773-1.86942-23.36773s0-.93471,2.80413-.93471,25.23713,34.58423,25.23713,34.58423l1.86942,18.69418,3.19663,3.65469Z" transform="translate(-35.5 -118.5)" fill="#d23f31"/><path d="M388.76065,493.74232s-14.95534,17.75947-16.82476,18.69418c-.701.35519-5.37457,2.42086-10.92669,4.86979-26.93837-6.83271-57.77441-22.16191-57.77441-22.16191s-8.87973-31.31274-1.40206-45.33338,28.976,1.86942,28.976,1.86942,8.18806,6.32794,18.152,13.74953c1.98169,1.47686,4.02865,3.00044,6.10367,4.524,10.84272,7.973,22.21805,16.00221,26.87288,18.1801.85062.39256,2.02836,1.00014,3.47709,1.78527Z" transform="translate(-35.5 -118.5)" opacity="0.1"/><path d="M295.28977,493.74232s69.16845,21.4983,86.92792,23.36772,49.53957,37.38836,52.3437,36.45365,22.433-24.30243,17.75947-28.04127-60.3822-37.38835-70.38358-42.0619-51.12858-36.45364-51.12858-36.45364-21.4983-15.89005-28.976-1.86942S295.28977,493.74232,295.28977,493.74232Z" transform="translate(-35.5 -118.5)" fill="#d23f31"/><path d="M330.8087,598.42971s-11.2165-8.41238-18.69417-6.543-16.82476,7.47767-15.89,19.62889a200.1052,200.1052,0,0,0,2.80412,21.4983h.93471l2.80413-16.82476s8.41238,3.73884,10.2818,10.2818,25.23714,19.62889,30.84539,14.95534-5.60825-10.2818-5.60825-10.2818Z" transform="translate(-35.5 -118.5)" fill="#f2f2f2"/><path d="M330.8087,598.42971s-11.2165-8.41238-18.69417-6.543-16.82476,7.47767-15.89,19.62889a200.1052,200.1052,0,0,0,2.80412,21.4983h.93471l2.80413-16.82476s8.41238,3.73884,10.2818,10.2818,25.23714,19.62889,30.84539,14.95534-5.60825-10.2818-5.60825-10.2818Z" transform="translate(-35.5 -118.5)" opacity="0.1"/><path d="M351.3723,605.90738s80.385-9.34708,76.64613-24.30243-31.7801-31.7801-31.7801-31.7801l-46.73545,9.34709L318.8846,592.3075l11.9241,6.12221Z" transform="translate(-35.5 -118.5)" fill="#3c354c"/><path d="M351.3723,605.90738s80.385-9.34708,76.64613-24.30243-31.7801-31.7801-31.7801-31.7801l-46.73545,9.34709L318.8846,592.3075l11.9241,6.12221Z" transform="translate(-35.5 -118.5)" opacity="0.1"/><path d="M314.91865,618.99331s-15.89005,27.10656-20.56359,28.04126-10.2818,6.543-3.73884,18.69418a66.38264,66.38264,0,0,1,7.47767,23.36772h1.86942l-.93471-16.82476s12.15122,19.62889,13.08593,27.10656,35.51893,14.95534,41.12719,4.67355-7.47767-17.75947-7.47767-17.75947S326.13516,664.794,328.93929,649.8387s5.60825-18.69418,5.60825-18.69418Z" transform="translate(-35.5 -118.5)" fill="#f2f2f2"/><path d="M263.50967,551.69427s-8.41238,53.27841,22.433,51.409,95.3403-40.19248,95.3403-40.19248l19.62889-21.49831s14.02063-19.62888-9.34709-25.23714S329.874,530.196,329.874,530.196l-57.952,25.23714Z" transform="translate(-35.5 -118.5)" fill="#3c354c"/><path d="M397.173,536.73893l3.73884,4.67354s-57.01724,92.53618-62.62549,93.47089-25.23714-13.08592-25.23714-15.89005,7.47767-18.69418,9.34708-20.5636,20.5636-44.866,24.30244-47.67015S397.173,536.73893,397.173,536.73893Z" transform="translate(-35.5 -118.5)" fill="#3c354c"/><ellipse cx="317.27436" cy="250.92604" rx="30.84539" ry="21.03095" fill="#3c354c"/><rect x="603" y="272.5" width="284" height="22" rx="5.47638" fill="#d23f31" opacity="0.2"/><rect x="537" y="352.5" width="416" height="15" rx="5.47638" fill="#d23f31" opacity="0.2"/><rect x="537" y="396.5" width="416" height="15" rx="5.47638" fill="#d23f31" opacity="0.2"/><rect x="537" y="440.5" width="416" height="15" rx="5.47638" fill="#d23f31" opacity="0.2"/><rect x="537" y="484.5" width="416" height="15" rx="5.47638" fill="#d23f31" opacity="0.2"/><rect x="865" y="552.5" width="88" height="26" rx="7.02756" fill="#d23f31"/><path d="M1088.60287,624.61594a30.11371,30.11371,0,0,0,3.98291-15.266c0-13.79652-8.54358-24.98081-19.08256-24.98081s-19.08256,11.18429-19.08256,24.98081a30.11411,30.11411,0,0,0,3.98291,15.266,31.248,31.248,0,0,0,0,30.53213,31.248,31.248,0,0,0,0,30.53208,31.248,31.248,0,0,0,0,30.53208,30.11408,30.11408,0,0,0-3.98291,15.266c0,13.79652,8.54353,24.98081,19.08256,24.98081s19.08256-11.18429,19.08256-24.98081a30.11368,30.11368,0,0,0-3.98291-15.266,31.248,31.248,0,0,0,0-30.53208,31.248,31.248,0,0,0,0-30.53208,31.248,31.248,0,0,0,0-30.53213Z" transform="translate(-35.5 -118.5)" fill="#3f3d56"/><ellipse cx="1038.00321" cy="460.31783" rx="19.08256" ry="24.9808" fill="#3f3d56"/><ellipse cx="1038.00321" cy="429.78574" rx="19.08256" ry="24.9808" fill="#3f3d56"/><path d="M1144.93871,339.34489a91.61081,91.61081,0,0,0,7.10658-10.46092l-50.141-8.23491,54.22885.4033a91.566,91.566,0,0,0,1.74556-72.42605l-72.75449,37.74139,67.09658-49.32086a91.41255,91.41255,0,1,0-150.971,102.29805,91.45842,91.45842,0,0,0-10.42451,16.66946l65.0866,33.81447-69.40046-23.292a91.46011,91.46011,0,0,0,14.73837,85.83669,91.40575,91.40575,0,1,0,143.68892,0,91.41808,91.41808,0,0,0,0-113.02862Z" transform="translate(-35.5 -118.5)" fill="#d23f31"/><path d="M981.6885,395.8592a91.01343,91.01343,0,0,0,19.56129,56.51431,91.40575,91.40575,0,1,0,143.68892,0C1157.18982,436.82067,981.6885,385.60008,981.6885,395.8592Z" transform="translate(-35.5 -118.5)" opacity="0.1"/></svg>