<svg id="e165fece-05d2-4993-8602-41b5d2669c6b" data-name="Layer 1" xmlns="http://www.w3.org/2000/svg" width="1087" height="800.5" viewBox="0 0 1087 800.5"><title>knowledge</title><rect x="117.5" y="105.5" width="910" height="490" fill="#f2f2f2"/><rect x="205.5" y="189.5" width="294" height="361" fill="#f1e05a" opacity="0.3"/><rect x="612.5" y="215.5" width="235" height="13" fill="#3f3d56"/><rect x="612.5" y="239.5" width="342" height="13" fill="#3f3d56"/><rect x="612.5" y="297.5" width="235" height="13" fill="#3f3d56"/><rect x="612.5" y="393.5" width="235" height="13" fill="#3f3d56"/><rect x="612.5" y="321.5" width="342" height="13" fill="#3f3d56"/><rect x="612.5" y="345.5" width="342" height="13" fill="#3f3d56"/><rect x="612.5" y="369.5" width="342" height="13" fill="#3f3d56"/><rect x="612.5" y="451.5" width="123" height="34" fill="#f1e05a"/><rect x="224.5" y="170" width="294" height="361" fill="#3f3d56"/><path d="M533,419.35768c0,70.11079-41.67975,94.59086-93.09433,94.59086s-93.09433-24.48007-93.09433-94.59086,93.09433-159.30276,93.09433-159.30276S533,349.24689,533,419.35768Z" transform="translate(-56.5 -49.75)" fill="#f1e05a"/><polygon points="380.014 453.474 380.968 394.797 420.647 322.206 381.117 385.593 381.546 359.209 408.893 306.69 381.659 352.227 381.659 352.228 382.43 304.776 411.714 262.964 382.551 297.314 383.033 210.305 380.006 325.49 380.255 320.738 350.482 275.166 379.777 329.859 377.003 382.855 376.921 381.448 342.598 333.49 376.817 386.417 376.47 393.045 376.408 393.145 376.436 393.689 369.398 528.142 378.801 528.142 379.93 458.694 414.064 405.897 380.014 453.474" fill="#3f3d56"/><ellipse cx="131.5" cy="783.5" rx="131" ry="17" fill="#3f3d56"/><path d="M126.12316,362.62584l-4.35152,10.33487,4.89546,66.90465s-2.7197,3.80758,0,6.52728,2.17576,3.80758,2.17576,3.80758-4.35152,0-2.17576,3.26364,2.17576,4.89547,2.17576,4.89547L127.755,461.623s2.17576,2.7197,2.17576,4.89546,14.14245,69.08041,14.14245,69.08041l13.5985-26.65307-7.61516-106.06835Z" transform="translate(-56.5 -49.75)" fill="#f1e05a"/><path d="M269.2085,529.98312s23.93217,17.62731,24.775,31.72364-30.84987-20.99176-31.06529-24.94584S269.2085,529.98312,269.2085,529.98312Z" transform="translate(-56.5 -49.75)" fill="#ffb9b9"/><path d="M119.05194,796.69016,113.06859,816.272s-8.703,19.03791,3.26364,21.75761,23.38944-7.61516,23.38944-7.61516V817.35989l4.35152-20.66973Z" transform="translate(-56.5 -49.75)" fill="#2f2e41"/><path d="M216.96118,796.69016s-2.7197,36.98793,3.26364,39.16369,27.197,2.7197,27.741,0,7.07123-5.4394,2.17576-9.247-8.1591-26.10913-8.1591-26.10913Z" transform="translate(-56.5 -49.75)" fill="#2f2e41"/><path d="M162.02322,446.39264v16.31821s-17.95,37.53187-24.47732,96.82136S108.71707,799.40986,114.15647,802.6735s64.185,5.4394,65.81677,1.08788,3.26364-131.63354,3.26364-131.63354l20.12579-89.75014s3.80759,32.09247,7.07123,37.53188-5.43941,182.22,0,184.93968,78.87133,7.61516,77.78345-1.08788-25.56519-244.77311-25.56519-244.77311S250.14153,447.48052,246.334,446.39264s-38.61975-2.17576-44.05916-1.08788S162.02322,446.39264,162.02322,446.39264Z" transform="translate(-56.5 -49.75)" fill="#2f2e41"/><circle cx="146.86267" cy="230.74087" r="31.00459" fill="#ffb9b9"/><path d="M209.89,306.6s-15.77427,24.47731-11.96669,31.00459-40.25158-6.52728-40.25158-6.52728,26.65308-32.63642,26.10913-36.444S209.89,306.6,209.89,306.6Z" transform="translate(-56.5 -49.75)" fill="#ffb9b9"/><path d="M242.52637,343.044s-28.82883-9.247-32.63641-13.05456a52.31817,52.31817,0,0,1-6.52729-8.15911s-34.81217-4.89546-35.90005-4.89546-9.247,9.79093-11.42275,11.96669-29.91671,16.86214-29.91671,20.66973-4.35152,23.38943-4.35152,23.38943,9.79092,20.12579,15.77426,24.47731,7.61517,3.26364,8.15911,10.33486,8.1591,18.494,8.1591,18.494,4.89546,12.51063,3.80758,16.31821-5.98334,7.07122,5.43941,5.98334,67.99253,2.17576,67.99253-3.80758-10.87881-63.09707-10.87881-63.09707Z" transform="translate(-56.5 -49.75)" fill="#f1e05a"/><path d="M232.19151,344.13187l10.33486-1.08788s3.80758,2.17576,4.35152,23.38943.54394,72.34406,4.35153,76.69558,19.58184,71.80011,19.58184,71.80011,4.35153,1.08788,4.35153,4.89546,4.89546,7.07123,2.7197,11.42275,2.17576,3.26364-.54394,5.98334-15.77427,8.1591-16.31821,4.89546,1.63182-3.80758-.54394-4.89546-2.17576-1.63182-2.7197-5.4394-5.4394-7.61517-4.89546-9.247-23.93337-48.95462-23.93337-50.58644-1.63183-7.61516-3.80759-8.703-5.4394-2.17576-3.80758-4.89546-4.35152-84.31074-4.35152-84.31074Z" transform="translate(-56.5 -49.75)" fill="#f1e05a"/><path d="M229.58136,260.82819c-9.50754-10.32052-24.43845-15.7983-38.13088-12.72851s-25.22222,15.22639-26.29294,29.21782c-.219,2.862-.03658,5.78532-.77714,8.55855-1.24558,4.66446-4.952,8.36136-6.25866,13.00907-.87517,3.11285-.61579,6.46455-1.54332,9.5622-1.71391,5.72392-7.0189,9.456-11.0622,13.85511a14.02049,14.02049,0,0,0-3.54109,5.79487,21.85181,21.85181,0,0,0-.26791,5.89668,41.05728,41.05728,0,0,1-11.00759,28.642,70.653,70.653,0,0,1,13.69788-7.9634c-2.404,7.65546-.20626,16.71331,5.84256,21.98559s15.737,6.09142,22.2772,1.44265c3.88527-2.76165,6.40882-7.00037,8.8191-11.11287l9.12588-15.57094c1.65067-2.81643,3.374-5.71482,6.01148-7.63856,2.096-1.52879,4.64268-2.34222,6.75251-3.85182,5.32221-3.80807,6.75125-11.26127,5.76025-17.73005s-3.90007-12.47487-5.56847-18.80287c-1.31957-5.005-1.73366-10.74072,1.23492-14.9808,3.94051-5.6283,12.03886-6.3464,17.39337-10.65158,2.01594-1.62087,2.91656-3.593,4.36041-5.62191,1.33293-1.87308,1.6725-1.20168,3.73788-1.28729C235.81566,270.6171,231.68282,263.10935,229.58136,260.82819Z" transform="translate(-56.5 -49.75)" fill="#2f2e41"/><ellipse cx="146" cy="241.5" rx="2.5" ry="6" fill="#ffb9b9"/><circle cx="674" cy="694" r="32" fill="#f2f2f2"/><circle cx="32" cy="64" r="32" fill="#f2f2f2"/><circle cx="1055" cy="32" r="32" fill="#f2f2f2"/></svg>