<?xml version="1.0" encoding="UTF-8"?>
<svg xmlns="http://www.w3.org/2000/svg" width="1516" height="871" viewBox="0 0 1516 871" font-family="-apple-system, BlinkMacSystemFont, 'Segoe UI', 'Helvetica Neue', Arial, 'PingFang SC', 'Microsoft YaHei', sans-serif">
<defs><marker id="arrow" viewBox="0 0 10 10" refX="8" refY="5" markerWidth="4" markerHeight="4" orient="auto-start-reverse"><path d="M0,0 L10,5 L0,10 z" fill="#6b7280"/></marker><marker id="arrow-light" viewBox="0 0 10 10" refX="8" refY="5" markerWidth="4" markerHeight="4" orient="auto-start-reverse"><path d="M0,0 L10,5 L0,10 z" fill="#9ca3af"/></marker></defs>
<rect x="0" y="0" width="1516" height="871" fill="#ffffff"/>
<text x="758" y="66" text-anchor="middle" font-size="34" font-weight="700" fill="#1f2328">SiYuan Architecture</text>
<rect x="32" y="100" width="940" height="102" rx="10" fill="#ebf6fc" stroke="#a2d6f3" stroke-width="2"/>
<text x="48" y="130" font-size="20" font-weight="700" fill="#1f2328">Clients</text>
<rect x="48" y="146" width="176.373" height="38" rx="6" fill="#ffffff" stroke="#e2e8f0" stroke-width="1.5"/><text x="136.2" y="165" text-anchor="middle" dominant-baseline="central" font-size="15" fill="#1f2328">Desktop</text><rect x="232.4" y="146" width="176.358" height="38" rx="6" fill="#ffffff" stroke="#e2e8f0" stroke-width="1.5"/><text x="320.6" y="165" text-anchor="middle" dominant-baseline="central" font-size="15" fill="#1f2328">Browser</text><rect x="416.7" y="146" width="173.043" height="38" rx="6" fill="#ffffff" stroke="#e2e8f0" stroke-width="1.5"/><text x="503.3" y="165" text-anchor="middle" dominant-baseline="central" font-size="15" fill="#1f2328">Android</text><rect x="597.8" y="146" width="146.358" height="38" rx="6" fill="#ffffff" stroke="#e2e8f0" stroke-width="1.5"/><text x="671" y="165" text-anchor="middle" dominant-baseline="central" font-size="15" fill="#1f2328">iOS</text><rect x="752.1" y="146" width="203.868" height="38" rx="6" fill="#ffffff" stroke="#e2e8f0" stroke-width="1.5"/><text x="854.1" y="165" text-anchor="middle" dominant-baseline="central" font-size="15" fill="#1f2328">HarmonyOS</text>
<rect x="32" y="246" width="940" height="148" rx="10" fill="#e0eef6" stroke="#73b2d5" stroke-width="2"/>
<text x="48" y="276" font-size="20" font-weight="700" fill="#1f2328">Frontend (TypeScript)</text>
<rect x="48" y="292" width="190.9925" height="38" rx="6" fill="#ffffff" stroke="#e2e8f0" stroke-width="1.5"/><text x="143.5" y="311" text-anchor="middle" dominant-baseline="central" font-size="15" fill="#1f2328">App UI</text><rect x="247" y="292" width="243.50750000000002" height="38" rx="6" fill="#ffffff" stroke="#e2e8f0" stroke-width="1.5"/><text x="368.7" y="311" text-anchor="middle" dominant-baseline="central" font-size="15" fill="#1f2328">Editor / Protyle</text><rect x="498.5" y="292" width="256.8425" height="38" rx="6" fill="#ffffff" stroke="#e2e8f0" stroke-width="1.5"/><text x="626.9" y="311" text-anchor="middle" dominant-baseline="central" font-size="15" fill="#1f2328">Attribute View UI</text><rect x="763.3" y="292" width="192.65750000000003" height="38" rx="6" fill="#ffffff" stroke="#e2e8f0" stroke-width="1.5"/><text x="859.7" y="311" text-anchor="middle" dominant-baseline="central" font-size="15" fill="#1f2328">Search</text>
<rect x="48" y="338" width="232.6625" height="38" rx="6" fill="#ffffff" stroke="#e2e8f0" stroke-width="1.5"/><text x="164.3" y="357" text-anchor="middle" dominant-baseline="central" font-size="15" fill="#1f2328">Flashcards</text><rect x="288.7" y="338" width="173.4875" height="38" rx="6" fill="#ffffff" stroke="#e2e8f0" stroke-width="1.5"/><text x="375.4" y="357" text-anchor="middle" dominant-baseline="central" font-size="15" fill="#1f2328">AI</text><rect x="470.2" y="338" width="208.4975" height="38" rx="6" fill="#ffffff" stroke="#e2e8f0" stroke-width="1.5"/><text x="574.4" y="357" text-anchor="middle" dominant-baseline="central" font-size="15" fill="#1f2328">Plugins</text><rect x="686.6" y="338" width="269.3525" height="38" rx="6" fill="#ffffff" stroke="#e2e8f0" stroke-width="1.5"/><text x="821.3" y="357" text-anchor="middle" dominant-baseline="central" font-size="15" fill="#1f2328">Export Renderer</text>
<rect x="32" y="438" width="940" height="240" rx="10" fill="#faece0" stroke="#e8a673" stroke-width="2"/>
<text x="48" y="468" font-size="20" font-weight="700" fill="#1f2328">Kernel (Go)</text>
<text x="48" y="503" dominant-baseline="central" font-size="13" font-weight="700" fill="#6b7280">Interfaces &amp; Servers</text>
<rect x="198" y="484" width="125.037" height="38" rx="6" fill="#ffffff" stroke="#e2e8f0" stroke-width="1.5"/><text x="260.5" y="503" text-anchor="middle" dominant-baseline="central" font-size="15" fill="#1f2328">WebSocket</text><rect x="331" y="484" width="81.672" height="38" rx="6" fill="#ffffff" stroke="#e2e8f0" stroke-width="1.5"/><text x="371.9" y="503" text-anchor="middle" dominant-baseline="central" font-size="15" fill="#1f2328">MCP</text><rect x="420.7" y="484" width="251.727" height="38" rx="6" fill="#ffffff" stroke="#e2e8f0" stroke-width="1.5"/><text x="546.6" y="503" text-anchor="middle" dominant-baseline="central" font-size="15" fill="#1f2328">WebDAV / CalDAV / CardDAV</text><rect x="680.4" y="484" width="115.857" height="38" rx="6" fill="#ffffff" stroke="#e2e8f0" stroke-width="1.5"/><text x="738.4" y="503" text-anchor="middle" dominant-baseline="central" font-size="15" fill="#1f2328">HTTP API</text><rect x="804.3" y="484" width="151.70700000000002" height="38" rx="6" fill="#ffffff" stroke="#e2e8f0" stroke-width="1.5"/><text x="880.1" y="503" text-anchor="middle" dominant-baseline="central" font-size="15" fill="#1f2328">Publish Service</text>
<text x="48" y="549" dominant-baseline="central" font-size="13" font-weight="700" fill="#6b7280">Domain &amp; Extensions</text>
<rect x="198" y="530" width="122.99416666666667" height="38" rx="6" fill="#ffffff" stroke="#e2e8f0" stroke-width="1.5"/><text x="259.5" y="549" text-anchor="middle" dominant-baseline="central" font-size="15" fill="#1f2328">model</text><rect x="329" y="530" width="97.98916666666668" height="38" rx="6" fill="#ffffff" stroke="#e2e8f0" stroke-width="1.5"/><text x="378" y="549" text-anchor="middle" dominant-baseline="central" font-size="15" fill="#1f2328">av</text><rect x="435" y="530" width="127.16416666666666" height="38" rx="6" fill="#ffffff" stroke="#e2e8f0" stroke-width="1.5"/><text x="498.6" y="549" text-anchor="middle" dominant-baseline="central" font-size="15" fill="#1f2328">search</text><rect x="570.1" y="530" width="119.67916666666667" height="38" rx="6" fill="#ffffff" stroke="#e2e8f0" stroke-width="1.5"/><text x="630" y="549" text-anchor="middle" dominant-baseline="central" font-size="15" fill="#1f2328">agent</text><rect x="697.8" y="530" width="128.00416666666666" height="38" rx="6" fill="#ffffff" stroke="#e2e8f0" stroke-width="1.5"/><text x="761.8" y="549" text-anchor="middle" dominant-baseline="central" font-size="15" fill="#1f2328">bazaar</text><rect x="833.8" y="530" width="122.16916666666668" height="38" rx="6" fill="#ffffff" stroke="#e2e8f0" stroke-width="1.5"/><text x="894.9" y="549" text-anchor="middle" dominant-baseline="central" font-size="15" fill="#1f2328">plugin</text>
<text x="48" y="595" dominant-baseline="central" font-size="13" font-weight="700" fill="#6b7280">Data &amp; Infrastructure</text>
<rect x="198" y="576" width="202.68874999999997" height="38" rx="6" fill="#ffffff" stroke="#e2e8f0" stroke-width="1.5"/><text x="299.3" y="595" text-anchor="middle" dominant-baseline="central" font-size="15" fill="#1f2328">treenode</text><rect x="408.7" y="576" width="162.65375" height="38" rx="6" fill="#ffffff" stroke="#e2e8f0" stroke-width="1.5"/><text x="490" y="595" text-anchor="middle" dominant-baseline="central" font-size="15" fill="#1f2328">sql</text><rect x="579.3" y="576" width="185.15375" height="38" rx="6" fill="#ffffff" stroke="#e2e8f0" stroke-width="1.5"/><text x="671.9" y="595" text-anchor="middle" dominant-baseline="central" font-size="15" fill="#1f2328">filesys</text><rect x="772.5" y="576" width="183.50375" height="38" rx="6" fill="#ffffff" stroke="#e2e8f0" stroke-width="1.5"/><text x="864.2" y="595" text-anchor="middle" dominant-baseline="central" font-size="15" fill="#1f2328">cache</text>
<text x="48" y="641" dominant-baseline="central" font-size="13" font-weight="700" fill="#6b7280">Cross-cutting</text>
<rect x="198" y="622" width="166.62125" height="38" rx="6" fill="#ffffff" stroke="#e2e8f0" stroke-width="1.5"/><text x="281.3" y="641" text-anchor="middle" dominant-baseline="central" font-size="15" fill="#1f2328">conf</text><rect x="372.6" y="622" width="157.44125000000003" height="38" rx="6" fill="#ffffff" stroke="#e2e8f0" stroke-width="1.5"/><text x="451.3" y="641" text-anchor="middle" dominant-baseline="central" font-size="15" fill="#1f2328">util</text><rect x="538.1" y="622" width="211.63625000000002" height="38" rx="6" fill="#ffffff" stroke="#e2e8f0" stroke-width="1.5"/><text x="643.9" y="641" text-anchor="middle" dominant-baseline="central" font-size="15" fill="#1f2328">apicontract</text><rect x="757.7" y="622" width="198.30125" height="38" rx="6" fill="#ffffff" stroke="#e2e8f0" stroke-width="1.5"/><text x="856.8" y="641" text-anchor="middle" dominant-baseline="central" font-size="15" fill="#1f2328">task / job</text>
<rect x="32" y="722" width="940" height="116.08" rx="10" fill="#e0f3ee" stroke="#73c9b2" stroke-width="2"/>
<text x="48" y="752" font-size="20" font-weight="700" fill="#1f2328">Workspace &amp; Persistence</text>
<rect x="48" y="768" width="150.42700000000002" height="52.08" rx="6" fill="#ffffff" stroke="#e2e8f0" stroke-width="1.5"/><text x="123.2" y="794" text-anchor="middle" dominant-baseline="central" font-size="15" fill="#1f2328">.sy Documents</text><rect x="206.4" y="768" width="96.24700000000001" height="52.08" rx="6" fill="#ffffff" stroke="#e2e8f0" stroke-width="1.5"/><text x="254.6" y="794" text-anchor="middle" dominant-baseline="central" font-size="15" fill="#1f2328">Assets</text><rect x="310.7" y="768" width="132.937" height="52.08" rx="6" fill="#ffffff" stroke="#e2e8f0" stroke-width="1.5"/><text x="377.1" y="794" text-anchor="middle" dominant-baseline="central" font-size="15" fill="#1f2328">blocktree.db</text><rect x="451.6" y="768" width="254.23700000000002" height="52.08" rx="6" fill="#ffffff" stroke="#e2e8f0" stroke-width="1.5"/><text x="578.7" y="787" text-anchor="middle" dominant-baseline="central" font-size="15" fill="#1f2328">SQLite DBs / FTS5</text><text x="578.7" y="803.6" text-anchor="middle" dominant-baseline="central" font-size="11" fill="#1f2328">siyuan.db · history.db · asset_content.db</text><rect x="713.8" y="768" width="242.15200000000002" height="52.08" rx="6" fill="#ffffff" stroke="#e2e8f0" stroke-width="1.5"/><text x="834.9" y="794" text-anchor="middle" dominant-baseline="central" font-size="15" fill="#1f2328">Data Repository / Snapshots</text>
<text x="1060" y="126" font-size="20" font-weight="700" fill="#1f2328">Legend</text><path d="M 1424 152 L 1468 152" stroke="#6b7280" stroke-width="2" fill="none" stroke-linecap="round" marker-start="url(#arrow)" marker-end="url(#arrow)"/><text x="1060" y="152" dominant-baseline="central" font-size="13" fill="#6b7280">Call / data flow</text><path d="M 1424 186 L 1468 186" stroke="#6b7280" stroke-width="2" fill="none" stroke-linecap="round"/><text x="1060" y="186" dominant-baseline="central" font-size="13" fill="#6b7280">Hosts / runs on</text><path d="M 1424 220 L 1468 220" stroke="#9ca3af" stroke-width="2" fill="none" stroke-linecap="round" stroke-dasharray="6 4" marker-start="url(#arrow-light)" marker-end="url(#arrow-light)"/><text x="1060" y="220" dominant-baseline="central" font-size="13" fill="#6b7280">External dependency / integration</text>
<rect x="1044" y="288" width="440" height="130" rx="10" fill="#efefef" stroke="#b6b6b6" stroke-width="2"/><text x="1060" y="314" font-size="20" font-weight="700" fill="#1f2328">External Clients</text><rect x="1060" y="326" width="176.66750000000002" height="34" rx="6" fill="#ffffff" stroke="#e2e8f0" stroke-width="1.5"/><text x="1148.3" y="343" text-anchor="middle" dominant-baseline="central" font-size="15" fill="#1f2328">Chrome Extension</text><rect x="1244.7" y="326" width="223.3325" height="34" rx="6" fill="#ffffff" stroke="#e2e8f0" stroke-width="1.5"/><text x="1356.3" y="343" text-anchor="middle" dominant-baseline="central" font-size="15" fill="#1f2328">WebDAV / CalDAV Client</text><rect x="1060" y="368" width="408" height="34" rx="6" fill="#ffffff" stroke="#e2e8f0" stroke-width="1.5"/><text x="1264" y="385" text-anchor="middle" dominant-baseline="central" font-size="15" fill="#1f2328">MCP Client / Server</text>
<rect x="1044" y="456.1" width="440" height="172" rx="10" fill="#efefef" stroke="#b6b6b6" stroke-width="2"/><text x="1060" y="482.1" font-size="20" font-weight="700" fill="#1f2328">Cloud Services</text><rect x="1060" y="494.1" width="245.855" height="34" rx="6" fill="#ffffff" stroke="#e2e8f0" stroke-width="1.5"/><text x="1182.9" y="511.1" text-anchor="middle" dominant-baseline="central" font-size="15" fill="#1f2328">Account / Subscription</text><rect x="1313.9" y="494.1" width="154.145" height="34" rx="6" fill="#ffffff" stroke="#e2e8f0" stroke-width="1.5"/><text x="1390.9" y="511.1" text-anchor="middle" dominant-baseline="central" font-size="15" fill="#1f2328">Cloud AI</text><rect x="1060" y="536.1" width="234.1775" height="34" rx="6" fill="#ffffff" stroke="#e2e8f0" stroke-width="1.5"/><text x="1177.1" y="553.1" text-anchor="middle" dominant-baseline="central" font-size="15" fill="#1f2328">Activation Code</text><rect x="1302.2" y="536.1" width="165.8225" height="34" rx="6" fill="#ffffff" stroke="#e2e8f0" stroke-width="1.5"/><text x="1385.1" y="553.1" text-anchor="middle" dominant-baseline="central" font-size="15" fill="#1f2328">Inbox</text><rect x="1060" y="578.1" width="206.66750000000002" height="34" rx="6" fill="#ffffff" stroke="#e2e8f0" stroke-width="1.5"/><text x="1163.3" y="595.1" text-anchor="middle" dominant-baseline="central" font-size="15" fill="#1f2328">Block Reminder</text><rect x="1274.7" y="578.1" width="193.33249999999998" height="34" rx="6" fill="#ffffff" stroke="#e2e8f0" stroke-width="1.5"/><text x="1371.3" y="595.1" text-anchor="middle" dominant-baseline="central" font-size="15" fill="#1f2328">Upload / CDN</text>
<rect x="1044" y="666.1" width="440" height="172" rx="10" fill="#efefef" stroke="#b6b6b6" stroke-width="2"/><text x="1060" y="692.1" font-size="20" font-weight="700" fill="#1f2328">Open-source Ecosystem</text><rect x="1060" y="704.1" width="194.5925" height="34" rx="6" fill="#ffffff" stroke="#e2e8f0" stroke-width="1.5"/><text x="1157.3" y="721.1" text-anchor="middle" dominant-baseline="central" font-size="15" fill="#1f2328">Lute - editor engine</text><rect x="1262.6" y="704.1" width="205.4075" height="34" rx="6" fill="#ffffff" stroke="#e2e8f0" stroke-width="1.5"/><text x="1365.3" y="721.1" text-anchor="middle" dominant-baseline="central" font-size="15" fill="#1f2328">Dejavu - sync engine</text><rect x="1060" y="746.1" width="229.6025" height="34" rx="6" fill="#ffffff" stroke="#e2e8f0" stroke-width="1.5"/><text x="1174.8" y="763.1" text-anchor="middle" dominant-baseline="central" font-size="15" fill="#1f2328">Riff - spaced repetition</text><rect x="1297.6" y="746.1" width="170.39749999999998" height="34" rx="6" fill="#ffffff" stroke="#e2e8f0" stroke-width="1.5"/><text x="1382.8" y="763.1" text-anchor="middle" dominant-baseline="central" font-size="15" fill="#1f2328">Gulu - utilities</text><rect x="1060" y="788.1" width="204.5825" height="34" rx="6" fill="#ffffff" stroke="#e2e8f0" stroke-width="1.5"/><text x="1162.3" y="805.1" text-anchor="middle" dominant-baseline="central" font-size="15" fill="#1f2328">Bazaar - packages</text><rect x="1272.6" y="788.1" width="195.4175" height="34" rx="6" fill="#ffffff" stroke="#e2e8f0" stroke-width="1.5"/><text x="1370.3" y="805.1" text-anchor="middle" dominant-baseline="central" font-size="15" fill="#1f2328">Petal - plugin API</text>
<path d="M 502 205 L 502 243" stroke="#6b7280" stroke-width="2" fill="none"/>
<path d="M 502 397 L 502 435" stroke="#6b7280" stroke-width="2" fill="none" marker-start="url(#arrow)" marker-end="url(#arrow)"/>
<path d="M 502 681 L 502 719" stroke="#6b7280" stroke-width="2" fill="none" marker-start="url(#arrow)" marker-end="url(#arrow)"/>
<path d="M 1039 353 L 1020 353 Q 1008 353 1008 365 L 1008 476 Q 1008 488 996 488 L 978 488" stroke="#9ca3af" stroke-width="2" fill="none" stroke-dasharray="6 4" marker-end="url(#arrow-light)" marker-start="url(#arrow-light)"/>
<path d="M 1039 542.1 L 978 542.1" stroke="#9ca3af" stroke-width="2" fill="none" stroke-dasharray="6 4" marker-end="url(#arrow-light)" marker-start="url(#arrow-light)"/>
<path d="M 1039 752.1 L 1020 752.1 Q 1008 752.1 1008 740.1 L 1008 640 Q 1008 628 996 628 L 978 628" stroke="#9ca3af" stroke-width="2" fill="none" stroke-dasharray="6 4" marker-end="url(#arrow-light)" marker-start="url(#arrow-light)"/>
</svg>
