<?xml version="1.0" encoding="utf-8"?>
<!-- Generator: Adobe Illustrator 25.0.1, SVG Export Plug-In . SVG Version: 6.00 Build 0)  -->
<!DOCTYPE svg PUBLIC "-//W3C//DTD SVG 1.1//EN" "http://www.w3.org/Graphics/SVG/1.1/DTD/svg11.dtd" [
	<!ENTITY ns_extend "http://ns.adobe.com/Extensibility/1.0/">
	<!ENTITY ns_ai "http://ns.adobe.com/AdobeIllustrator/10.0/">
	<!ENTITY ns_graphs "http://ns.adobe.com/Graphs/1.0/">
	<!ENTITY ns_vars "http://ns.adobe.com/Variables/1.0/">
	<!ENTITY ns_imrep "http://ns.adobe.com/ImageReplacement/1.0/">
	<!ENTITY ns_sfw "http://ns.adobe.com/SaveForWeb/1.0/">
	<!ENTITY ns_custom "http://ns.adobe.com/GenericCustomNamespace/1.0/">
	<!ENTITY ns_adobe_xpath "http://ns.adobe.com/XPath/1.0/">
]>
<svg version="1.1" id="图层_1" xmlns:x="&ns_extend;" xmlns:i="&ns_ai;" xmlns:graph="&ns_graphs;"
	 xmlns="http://www.w3.org/2000/svg" xmlns:xlink="http://www.w3.org/1999/xlink" x="0px" y="0px" viewBox="0 0 28 28"
	 style="enable-background:new 0 0 28 28;" xml:space="preserve">
<style type="text/css">
	.st0{fill:#EB8383;}
	.st1{fill:none;}
</style>
<metadata>
	<sfw  xmlns="&ns_sfw;">
		<slices></slices>
		<sliceSourceBounds  bottomLeftOrigin="true" height="16383" width="16383.8" x="-8177" y="-8178"></sliceSourceBounds>
	</sfw>
</metadata>
<desc>Created with Sketch.</desc>
<desc>Created with Sketch.</desc>
<desc>Created with Sketch.</desc>
<desc>Created with Sketch.</desc>
<desc>Created with Sketch.</desc>
<desc>Created with Sketch.</desc>
<desc>Created with Sketch.</desc>
<desc>Created with Sketch.</desc>
<desc>Created with Sketch.</desc>
<desc>Created with Sketch.</desc>
<desc>Created with Sketch.</desc>
<desc>Created with Sketch.</desc>
<path class="st0" d="M18.1,15.5c-0.1,0-0.1,0-0.2,0.1c-0.5,0.1-1,0.2-1.4,0.2c-2.4,0-3.9-1.5-3.9-3.9c0-0.5,0.1-1.2,0.3-1.5v-0.2
	c0-0.1-0.1-0.2-0.2-0.2c-0.1,0-0.2,0-0.3,0.1c-1.6,0.6-2.7,2.3-2.7,4.2c0,2.6,2,4.4,4.6,4.4c1.9,0,3.5-1.1,4.1-2.6
	c0.1-0.1,0.1-0.2,0.1-0.2C18.3,15.6,18.2,15.5,18.1,15.5z M14,6c-4.4,0-8,3.6-8,8c0,4.3,3.7,8,8,8c4.4,0,8-3.7,8-8
	C22,9.6,18.3,6,14,6z M14,20.2c-3.5,0-6.3-2.8-6.3-6.2s2.8-6.2,6.3-6.2c3.4,0,6.2,2.8,6.2,6.2S17.4,20.2,14,20.2z"/>
<line class="st1" x1="-8176.2" y1="6" x2="8206.8" y2="6"/>
</svg>
