<?xml version="1.0" encoding="utf-8"?>
<!-- Generator: Adobe Illustrator 25.0.1, SVG Export Plug-In . SVG Version: 6.00 Build 0)  -->
<!DOCTYPE svg PUBLIC "-//W3C//DTD SVG 1.1//EN" "http://www.w3.org/Graphics/SVG/1.1/DTD/svg11.dtd" [
	<!ENTITY ns_extend "http://ns.adobe.com/Extensibility/1.0/">
	<!ENTITY ns_ai "http://ns.adobe.com/AdobeIllustrator/10.0/">
	<!ENTITY ns_graphs "http://ns.adobe.com/Graphs/1.0/">
	<!ENTITY ns_vars "http://ns.adobe.com/Variables/1.0/">
	<!ENTITY ns_imrep "http://ns.adobe.com/ImageReplacement/1.0/">
	<!ENTITY ns_sfw "http://ns.adobe.com/SaveForWeb/1.0/">
	<!ENTITY ns_custom "http://ns.adobe.com/GenericCustomNamespace/1.0/">
	<!ENTITY ns_adobe_xpath "http://ns.adobe.com/XPath/1.0/">
]>
<svg version="1.1" id="图层_1" xmlns:x="&ns_extend;" xmlns:i="&ns_ai;" xmlns:graph="&ns_graphs;"
	 xmlns="http://www.w3.org/2000/svg" xmlns:xlink="http://www.w3.org/1999/xlink" x="0px" y="0px" viewBox="0 0 28 28"
	 style="enable-background:new 0 0 28 28;" xml:space="preserve">
<style type="text/css">
	.st0{fill:#37352F;}
</style>
<metadata>
	<sfw  xmlns="&ns_sfw;">
		<slices></slices>
		<sliceSourceBounds  bottomLeftOrigin="true" height="16" width="16" x="6" y="6"></sliceSourceBounds>
	</sfw>
</metadata>
<path class="st0" d="M20,6h-2.3c-0.1,0-0.2,0-0.3,0h-4.5c-0.1,0-0.2,0-0.3,0H8C6.9,6,6,6.9,6,8v12c0,1.1,0.9,2,2,2h12
	c1.1,0,2-0.9,2-2V8C22,6.9,21.1,6,20,6z M13.2,7.6h2.9l-1.3,2h-2.9L13.2,7.6z M7.6,8c0-0.2,0.2-0.4,0.4-0.4h3.3l-1.3,2H7.6V8z
	 M20.4,20c0,0.2-0.2,0.4-0.4,0.4H8c-0.2,0-0.4-0.2-0.4-0.4v-8.8h12.8C20.4,11.2,20.4,20,20.4,20z M20.4,9.6h-3.7l1.3-2h2
	c0.2,0,0.4,0.2,0.4,0.4V9.6z"/>
</svg>
